<?xml version="1.0" encoding="UTF-8" standalone="no"?>
<!-- Created with Inkscape (http://www.inkscape.org/) -->

<svg
   xmlns:dc="http://purl.org/dc/elements/1.1/"
   xmlns:cc="http://creativecommons.org/ns#"
   xmlns:rdf="http://www.w3.org/1999/02/22-rdf-syntax-ns#"
   xmlns:svg="http://www.w3.org/2000/svg"
   xmlns="http://www.w3.org/2000/svg"
   xmlns:sodipodi="http://sodipodi.sourceforge.net/DTD/sodipodi-0.dtd"
   xmlns:inkscape="http://www.inkscape.org/namespaces/inkscape"
   version="1.1"
   width="148"
   height="80"
   viewBox="0 0 148 79.999997"
   id="Calque_1"
   xml:space="preserve"
   inkscape:version="0.48.2 r9819"
   sodipodi:docname="logo.svg"
   inkscape:export-filename="/Users/marcu/Sites/Uello/web/img/banner/logo.png"
   inkscape:export-xdpi="300"
   inkscape:export-ydpi="300"><sodipodi:namedview
   pagecolor="#ffffff"
   bordercolor="#666666"
   borderopacity="1"
   objecttolerance="10"
   gridtolerance="10"
   guidetolerance="10"
   inkscape:pageopacity="0"
   inkscape:pageshadow="2"
   inkscape:window-width="738"
   inkscape:window-height="574"
   id="namedview34"
   showgrid="false"
   inkscape:zoom="1"
   inkscape:cx="72.347984"
   inkscape:cy="29.701281"
   inkscape:window-x="325"
   inkscape:window-y="39"
   inkscape:window-maximized="0"
   inkscape:current-layer="Calque_1" /><metadata
   id="metadata3395"><rdf:RDF><cc:Work
       rdf:about=""><dc:format>image/svg+xml</dc:format><dc:type
         rdf:resource="http://purl.org/dc/dcmitype/StillImage" /><dc:title></dc:title></cc:Work></rdf:RDF></metadata><defs
   id="defs3393">


</defs>
<symbol
   viewBox="-24 -24.001 48 48.001"
   transform="translate(-136.04761,-328.52177)"
   id="Puce_xA0_3_xA0_-_Bas">
	<g
   id="g3220">
		<radialGradient
   cx="-18.075701"
   cy="11.771"
   r="42.9356"
   id="SVGID_1_"
   gradientUnits="userSpaceOnUse">
			<stop
   id="stop3223"
   style="stop-color:#ffffff;stop-opacity:1"
   offset="0" />
			<stop
   id="stop3225"
   style="stop-color:#b0bfc7;stop-opacity:1"
   offset="1" />
		</radialGradient>
		<path
   d="m -14,-23.501 c -5.238,0 -9.5,4.262 -9.5,9.5 v 28 c 0,5.239 4.262,9.501 9.5,9.501 h 28 c 5.238,0 9.5,-4.262 9.5,-9.501 v -28 c 0,-5.238 -4.262,-9.5 -9.5,-9.5 h -28 z"
   id="path3227"
   style="fill:url(#SVGID_1_)"
   inkscape:connector-curvature="0" />
		<g
   id="g3229">
			<path
   d="m 14,23 c 4.962,0 9,-4.038 9,-9.001 v -28 c 0,-4.962 -4.038,-9 -9,-9 h -28 c -4.962,0 -9,4.038 -9,9 v 28 c 0,4.963 4.038,9.001 9,9.001 h 28 m 0,1 h -28 c -5.5,0 -10,-4.5 -10,-10.001 v -28 c 0,-5.5 4.5,-10 10,-10 h 28 c 5.5,0 10,4.5 10,10 v 28 C 24,19.5 19.5,24 14,24 l 0,0 z"
   id="path3231"
   style="fill:#8d98a0"
   inkscape:connector-curvature="0" />
		</g>
	</g>
	<linearGradient
   x1="0"
   y1="22.8022"
   x2="-1.618442e-06"
   y2="-14.2234"
   id="SVGID_2_"
   gradientUnits="userSpaceOnUse">
		<stop
   id="stop3234"
   style="stop-color:#ffffff;stop-opacity:1"
   offset="0" />
		<stop
   id="stop3236"
   style="stop-color:#010202;stop-opacity:1"
   offset="1" />
	</linearGradient>
	<path
   d="m 14,22 h -28 c -4.412,0 -8,-3.588 -8,-8.001 V -0.48 c 6.66,-1.72 14.121,-2.684 22,-2.684 7.879,0 15.338,0.964 22,2.684 V 13.999 C 22,18.412 18.412,22 14,22 z"
   id="path3238"
   style="fill:url(#SVGID_2_)"
   inkscape:connector-curvature="0" />
	<g
   id="g3240">
		<linearGradient
   x1="0.0020000001"
   y1="-10.6157"
   x2="0.0020000001"
   y2="10.3288"
   id="SVGID_3_"
   gradientUnits="userSpaceOnUse">
			<stop
   id="stop3243"
   style="stop-color:#706f71;stop-opacity:1"
   offset="0" />
			<stop
   id="stop3245"
   style="stop-color:#050607;stop-opacity:1"
   offset="1" />
		</linearGradient>
		<polygon
   points="-3.996,10.522 3.998,10.522 3.998,0.276 11.644,0.276 0.002,-12.408 -11.64,0.276 -3.996,0.276 "
   id="polygon3247"
   style="fill:url(#SVGID_3_)" />
		<path
   d="m 3.748,10.272 v -9.746 -0.5 h 0.5 6.827 L 0.002,-12.038 -11.071,0.026 h 6.825 0.5 v 0.5 9.746 h 7.494 m 0.5,0.5 H -4.246 V 0.526 h -7.963 L 0.002,-12.777 12.213,0.526 H 4.248 v 10.246 l 0,0 z"
   id="path3249"
   style="fill:#14272a"
   inkscape:connector-curvature="0" />
	</g>
</symbol>
















































<path
   d="m 16.180415,-288.42897 c 0.252,-4.386 2.012,-7.539 5.52,-9.568 1.599,-0.924 3.478,-1.193 4.815,0.463 1.239,1.536 0.365,3.104 -0.649,4.376 -2.376,2.98 -5.604,4.344 -9.686,4.729 z"
   id="path3273"
   style="fill:#ffffff;fill-rule:evenodd"
   inkscape:connector-curvature="0" /><g
   transform="translate(-115.53373,8.888485)"
   id="g3164"
   inkscape:export-filename="/Users/marcu/Sites/Uello/web/img/banner/logo.png"
   inkscape:export-xdpi="300"
   inkscape:export-ydpi="300"><path
     d="m 261.80902,40.581809 c -0.984,5.105 -5.069,7.756 -10.046,8.956 -9.118,2.196 -17.001,-4.792 -15.303,-13.604 0.076,-0.393 0.15,-0.794 0.304,-1.159 0.496,-1.18 0.987,-2.785 2.595,-2.028 0.688,0.326 1.203,1.978 1.068,2.922 -0.717,5.036 0.65,8.209 4.487,9.735 4.013,1.597 9.551,0.049 11.925,-3.331 1.604,-2.285 1.785,-5.606 0.261,-7.723 -1.794,-2.492 -4.489,-2.619 -7.171,-2.254 -1.232,0.167 -2.367,1.008 -3.589,1.293 -2.788,0.649 -2.411,-2.514 -1.798,-3.031 4.561,-3.853 15.185,-3.149 16.99,4.633 0.067,0.289 0.677,2.732 0.277,5.591 z"
     id="path3269"
     style="fill-rule:evenodd"
     inkscape:connector-curvature="0" /><g
     id="g3142"><path
   d="m 194.92902,4.851809 c 4.949,3.586 6.682,9.904 3.839,17.015 -1.543,3.863 -4.232,7.284 -6.525,10.826 -0.721,1.115 -1.834,1.976 -2.694,2.875 2.019,5.859 12.156,5.603 17.742,2.286 -0.252,-5.136 -0.758,-10.073 -0.639,-14.997 0.069,-2.816 0.916,-5.688 1.835,-8.39 1.023,-3.003 3.187,-5.167 6.606,-5.038 3.403,0.13 5.637,2.226 6.781,5.33 2.626,7.125 1.232,13.563 -3.565,19.351 -1.539,1.856 -3.072,3.718 -4.931,5.971 1.136,2.35 3.625,4.249 7.187,4.932 4.176,0.799 8.125,0.006 12.073,-1.27 1.949,-0.631 3.147,0.217 2.768,1.889 -0.144,0.63 -0.825,1.374 -1.442,1.623 -4.89,1.979 -9.951,2.498 -15.117,1.315 -4.15,-0.951 -7.132,-3.521 -9.232,-7.224 -8.294,3.002 -16.397,5.215 -23.372,-2.764 -2.426,1.736 -4.838,3.591 -7.375,5.256 -6.701,4.401 -14.023,6.289 -22.001,4.901 -7.147,-1.245 -10.013,-6.106 -7.794,-13.042 1.279,-3.997 3.661,-7.132 7.561,-8.898 3.201,-1.45 7.208,-0.626 9.054,1.745 1.828,2.35 1.649,6.117 -0.525,8.972 -2.275,2.985 -5.397,4.742 -8.927,5.834 -0.426,0.132 -0.865,0.218 -1.3,0.325 -0.021,0.265 -0.044,0.529 -0.066,0.793 2.293,0.303 4.586,0.862 6.88,0.862 7.343,0.003 13.343,-3.409 19.095,-7.616 2.762,-2.019 3.953,-3.828 3.315,-7.602 -0.992,-5.857 -0.303,-11.849 1.626,-17.592 1.077,-3.206 2.702,-5.97 5.765,-7.668 1.127,0 2.252,0 3.378,0 z m 16.333,30.225 c 0.239,0.082 0.478,0.163 0.717,0.245 1.705,-1.985 3.645,-3.819 5.065,-5.991 2.78,-4.25 2.98,-8.927 1.041,-13.55 -0.438,-1.039 -1.907,-2.148 -2.993,-2.25 -0.891,-0.084 -1.971,1.223 -2.858,2.03 -0.38,0.346 -0.548,0.974 -0.706,1.506 -1.798,5.992 -1.48,12 -0.266,18.01 z m -23.081,-3.723 c 3.491,-3.521 6.342,-7.036 7.208,-11.55 0.529,-2.753 0.289,-5.707 0.004,-8.532 -0.092,-0.898 -1.33,-2.133 -2.243,-2.342 -0.632,-0.145 -1.951,1.036 -2.375,1.912 -3.095,6.392 -3.588,13.147 -2.594,20.512 z m -35.953,8.739 c 4.082,-0.386 7.31,-1.749 9.686,-4.729 1.014,-1.272 1.888,-2.84 0.649,-4.376 -1.337,-1.656 -3.216,-1.387 -4.815,-0.463 -3.507,2.03 -5.267,5.183 -5.52,9.568 z"
   id="path3265"
   style="fill-rule:evenodd"
   inkscape:connector-curvature="0" /><path
   d="m 117.24802,38.144809 c 0.338,-1.798 0.67,-3.597 1.015,-5.392 0.136,-0.708 0.085,-1.587 0.495,-2.073 0.578,-0.688 1.504,-1.083 2.281,-1.604 0.435,0.83 1.279,1.684 1.231,2.485 -0.16,2.637 -0.647,5.253 -0.999,7.878 -0.074,0.557 -0.292,1.184 -0.125,1.668 0.466,1.342 0.764,3.051 1.748,3.83 1.376,1.092 3.244,0.468 4.283,-0.92 1.519,-2.026 2.964,-4.172 4.017,-6.461 0.994,-2.163 1.44,-4.579 2.131,-6.882 0.414,-1.377 0.998,-2.607 2.719,-2.574 1.795,0.036 1.824,1.436 2.081,2.713 0.698,3.452 1.315,6.93 2.234,10.326 0.791,2.923 1.519,3.238 4.355,2.583 1.283,-0.298 2.487,-0.484 2.865,1.157 0.339,1.472 -0.529,2.142 -1.872,2.562 -4.195,1.316 -6.792,0.254 -8.584,-3.791 -0.729,-1.641 -1.19,-3.399 -1.79,-5.155 -1.264,2.196 -2.388,4.4 -3.748,6.449 -1.622,2.444 -3.876,4.034 -6.931,4.249 -3.914,0.275 -5.992,-2.016 -7.406,-5.259 0,-1.93 0,-3.86 0,-5.789 z"
   id="path3267"
   style="fill-rule:evenodd"
   inkscape:connector-curvature="0" /><path
   d="m 251.92102,39.179809 c -2.787,0.003 -4.904,-1.409 -4.865,-3.246 0.04,-1.801 2.241,-3.203 4.967,-3.164 2.645,0.036 4.69,1.395 4.738,3.146 0.049,1.849 -2.046,3.261 -4.84,3.264 z"
   id="path3271"
   style="fill-rule:evenodd"
   inkscape:connector-curvature="0" /><text
   x="117.24932"
   y="62.371109"
   id="text3275"
   style="font-size:9.05379963px;fill:#76b82a;font-family:Verdana-Bold">Signalez vos problèmes vélo</text>


</g></g>



<rect
   width="537.203"
   height="25.504"
   x="-136.04761"
   y="241.25423"
   id="rect3389"
   style="fill:#ffffff" />
<text
   x="624.23517"
   y="59.469894"
   id="text3084"
   style="font-size:36px;fill:#ffffff;fill-opacity:0.94117647;font-family:Pecita">Liège</text>




<path
   d="m 423.0369,13.268434 c -19.91371,3.47553 -31.53004,14.77102 -28.21109,45.18192"
   id="path3856"
   style="fill:none;stroke:#ffffff;stroke-width:12.85900021;stroke-linecap:butt;stroke-linejoin:miter;stroke-miterlimit:4;stroke-opacity:1;stroke-dasharray:none"
   inkscape:connector-curvature="0" /></svg>