<?xml version="1.0" encoding="UTF-8" standalone="no"?>
<!-- Created with Inkscape (http://www.inkscape.org/) -->

<svg
   xmlns:dc="http://purl.org/dc/elements/1.1/"
   xmlns:cc="http://creativecommons.org/ns#"
   xmlns:rdf="http://www.w3.org/1999/02/22-rdf-syntax-ns#"
   xmlns:svg="http://www.w3.org/2000/svg"
   xmlns="http://www.w3.org/2000/svg"
   xmlns:xlink="http://www.w3.org/1999/xlink"
   xmlns:sodipodi="http://sodipodi.sourceforge.net/DTD/sodipodi-0.dtd"
   xmlns:inkscape="http://www.inkscape.org/namespaces/inkscape"
   version="1.1"
   width="68"
   height="80"
   viewBox="0 0 67.999999 79.999996"
   id="Calque_1"
   xml:space="preserve"
   inkscape:version="0.48.2 r9819"
   sodipodi:docname="velo1.svg"
   inkscape:export-filename="/Users/marcu/Documents/Champs Libres/Uello/Graphisme/picto/velo1.png"
   inkscape:export-xdpi="300"
   inkscape:export-ydpi="300"><sodipodi:namedview
   pagecolor="#ffffff"
   bordercolor="#666666"
   borderopacity="1"
   objecttolerance="10"
   gridtolerance="10"
   guidetolerance="10"
   inkscape:pageopacity="0"
   inkscape:pageshadow="2"
   inkscape:window-width="483"
   inkscape:window-height="454"
   id="namedview33"
   showgrid="false"
   showguides="true"
   inkscape:guide-bbox="true"
   inkscape:zoom="3"
   inkscape:cx="32.815254"
   inkscape:cy="29.095509"
   inkscape:window-x="760"
   inkscape:window-y="292"
   inkscape:window-maximized="0"
   inkscape:current-layer="Calque_1" /><metadata
   id="metadata3395"><rdf:RDF><cc:Work
       rdf:about=""><dc:format>image/svg+xml</dc:format><dc:type
         rdf:resource="http://purl.org/dc/dcmitype/StillImage" /><dc:title></dc:title></cc:Work></rdf:RDF></metadata><defs
   id="defs3393">


<radialGradient
   cx="-18.075701"
   cy="11.771"
   r="42.9356"
   id="radialGradient3117"
   xlink:href="#SVGID_1_"
   gradientUnits="userSpaceOnUse" /><linearGradient
   x1="0"
   y1="22.8022"
   x2="-1.618442e-06"
   y2="-14.2234"
   id="linearGradient3119"
   xlink:href="#SVGID_2_"
   gradientUnits="userSpaceOnUse" /><linearGradient
   x1="0.0020000001"
   y1="-10.6157"
   x2="0.0020000001"
   y2="10.3288"
   id="linearGradient3121"
   xlink:href="#SVGID_3_"
   gradientUnits="userSpaceOnUse" /></defs>
<symbol
   viewBox="-24 -24.001 48 48.001"
   transform="translate(-182.3066,-29.740021)"
   id="Puce_xA0_3_xA0_-_Bas">
	<g
   id="g3220">
		<radialGradient
   cx="-18.075701"
   cy="11.771"
   r="42.9356"
   id="SVGID_1_"
   gradientUnits="userSpaceOnUse">
			<stop
   id="stop3223"
   style="stop-color:#ffffff;stop-opacity:1"
   offset="0" />
			<stop
   id="stop3225"
   style="stop-color:#b0bfc7;stop-opacity:1"
   offset="1" />
		</radialGradient>
		<path
   d="m -14,-23.501 c -5.238,0 -9.5,4.262 -9.5,9.5 v 28 c 0,5.239 4.262,9.501 9.5,9.501 h 28 c 5.238,0 9.5,-4.262 9.5,-9.501 v -28 c 0,-5.238 -4.262,-9.5 -9.5,-9.5 h -28 z"
   id="path3227"
   style="fill:url(#radialGradient3117)"
   inkscape:connector-curvature="0" />
		<g
   id="g3229">
			<path
   d="m 14,23 c 4.962,0 9,-4.038 9,-9.001 v -28 c 0,-4.962 -4.038,-9 -9,-9 h -28 c -4.962,0 -9,4.038 -9,9 v 28 c 0,4.963 4.038,9.001 9,9.001 h 28 m 0,1 h -28 c -5.5,0 -10,-4.5 -10,-10.001 v -28 c 0,-5.5 4.5,-10 10,-10 h 28 c 5.5,0 10,4.5 10,10 v 28 C 24,19.5 19.5,24 14,24 l 0,0 z"
   id="path3231"
   style="fill:#8d98a0"
   inkscape:connector-curvature="0" />
		</g>
	</g>
	<linearGradient
   x1="0"
   y1="22.8022"
   x2="-1.618442e-06"
   y2="-14.2234"
   id="SVGID_2_"
   gradientUnits="userSpaceOnUse">
		<stop
   id="stop3234"
   style="stop-color:#ffffff;stop-opacity:1"
   offset="0" />
		<stop
   id="stop3236"
   style="stop-color:#010202;stop-opacity:1"
   offset="1" />
	</linearGradient>
	<path
   d="m 14,22 h -28 c -4.412,0 -8,-3.588 -8,-8.001 V -0.48 c 6.66,-1.72 14.121,-2.684 22,-2.684 7.879,0 15.338,0.964 22,2.684 V 13.999 C 22,18.412 18.412,22 14,22 z"
   id="path3238"
   style="fill:url(#linearGradient3119)"
   inkscape:connector-curvature="0" />
	<g
   id="g3240">
		<linearGradient
   x1="0.0020000001"
   y1="-10.6157"
   x2="0.0020000001"
   y2="10.3288"
   id="SVGID_3_"
   gradientUnits="userSpaceOnUse">
			<stop
   id="stop3243"
   style="stop-color:#706f71;stop-opacity:1"
   offset="0" />
			<stop
   id="stop3245"
   style="stop-color:#050607;stop-opacity:1"
   offset="1" />
		</linearGradient>
		<polygon
   points="0.002,-12.408 -11.64,0.276 -3.996,0.276 -3.996,10.522 3.998,10.522 3.998,0.276 11.644,0.276 "
   id="polygon3247"
   style="fill:url(#linearGradient3121)" />
		<path
   d="m 3.748,10.272 v -9.746 -0.5 h 0.5 6.827 L 0.002,-12.038 -11.071,0.026 h 6.825 0.5 v 0.5 9.746 h 7.494 m 0.5,0.5 H -4.246 V 0.526 h -7.963 L 0.002,-12.777 12.213,0.526 H 4.248 v 10.246 l 0,0 z"
   id="path3249"
   style="fill:#14272a"
   inkscape:connector-curvature="0" />
	</g>
</symbol>
















































<g
   transform="translate(-18.26199,-36.762937)"
   id="g3375">
	<path
   d="m 71.175,96.409 c -0.869,-2.4 -1.878,-4.75 -3.001,-7.072 -0.938,-1.939 -1.824,-3.906 -2.265,-6.023 -0.639,-3.07 2.914,-1.693 1.58,0.696 -0.825,1.482 1.446,2.804 2.271,1.325 0.985,-1.766 0.666,-3.499 -0.229,-4.737 0.775,-0.35 1.242,-1.36 0.424,-2.072 -2.479,-2.16 -5.662,-2.358 -8.819,-2.325 -1.534,0.017 -3.192,0.293 -4.703,-0.037 -2.184,-0.477 -4.442,-3.812 -5.59,-5.486 -0.092,-0.134 -0.201,-0.237 -0.313,-0.323 -0.135,-0.687 -0.722,-1.259 -1.57,-0.962 -3,1.051 -9.992,3.264 -8.462,7.799 0.929,2.758 4.261,4.575 7.026,6.111 -3.726,0.246 -8.653,0.771 -9.883,-2.761 C 36.503,77.278 38.35,73.7 41.104,72 c 2.073,-1.281 4.554,-1.663 6.826,-2.449 1.591,-0.55 0.905,-3.089 -0.701,-2.534 -3.028,1.047 -6.163,1.61 -8.759,3.618 -3.086,2.387 -4.13,6.391 -3.486,10.131 0.343,1.986 1.352,3.222 2.726,3.986 -1.298,-0.266 -2.595,-0.547 -3.885,-0.862 -1.646,-0.402 -2.341,2.132 -0.696,2.535 2.217,0.543 4.45,0.996 6.691,1.409 -0.128,0.291 -0.17,0.624 -0.093,0.942 -0.382,0.108 -0.73,0.366 -0.909,0.823 -1.114,2.818 -2.623,5.448 -4.217,8.028 -0.367,-0.026 -0.737,-0.04 -1.112,-0.03 -1.515,0.036 -1.67,2.14 -0.47,2.553 -0.56,0.885 -1.119,1.769 -1.664,2.657 -0.185,0.3 -0.228,0.593 -0.181,0.858 -0.09,-0.004 -0.182,-0.011 -0.273,-0.016 -1.695,-0.085 -1.684,2.543 0.002,2.628 3.185,0.16 6.346,0.575 9.509,0.959 -0.34,3.265 -2.647,6.655 -6.423,7.689 -4.442,1.216 -8.921,-1.21 -10.979,-5.14 -2.373,-4.533 0.453,-8.408 5.068,-9.315 1.662,-0.326 0.954,-2.857 -0.701,-2.533 -5.917,1.164 -9.258,6.182 -7.145,12.007 2.088,5.757 8.132,8.62 13.969,7.624 4.904,-0.836 8.354,-5.265 8.968,-10.014 2.031,0.218 4.064,0.388 6.109,0.436 0.43,0.35 1.007,0.296 1.451,0.009 0.306,-0.002 0.614,-0.003 0.921,-0.013 0.059,-0.002 0.11,-0.014 0.166,-0.021 0.941,0.552 1.906,0.972 2.315,2.224 0.526,1.603 3.064,0.915 2.533,-0.702 -0.346,-1.06 -0.739,-1.919 -1.605,-2.654 -0.377,-0.319 -0.79,-0.552 -1.199,-0.776 3.971,-5.51 7.238,-11.499 11.271,-16.968 0.278,0.566 0.548,1.096 0.776,1.575 1.048,2.195 1.991,4.408 2.807,6.666 -1.193,0.697 -2.262,1.75 -3.116,3.229 -0.849,1.47 1.424,2.792 2.271,1.325 0.484,-0.839 1.065,-1.484 1.709,-1.964 0.422,1.358 0.802,2.734 1.122,4.139 0.374,1.653 2.907,0.949 2.534,-0.701 -0.345,-1.514 -0.758,-2.995 -1.217,-4.458 5.97,-0.963 13.862,6.982 8.791,12.903 -4.118,4.804 -17.349,3.575 -16.259,-4.468 0.224,-1.657 -2.309,-2.369 -2.534,-0.695 -1.557,11.475 15.605,13.696 21.413,6.065 6.017,-7.913 -4.349,-17.826 -12.253,-16.296 z m -22.079,5.804 c -1.326,-2.557 -2.603,-5.139 -3.704,-7.807 -0.201,-0.49 -0.378,-0.986 -0.547,-1.481 0.278,0.218 0.65,0.318 1.098,0.187 2.47,-0.725 4.968,-1.325 7.478,-1.873 -0.46,2.199 -1.761,4.378 -2.65,6.267 -0.67,1.417 -1.445,3.059 -1.675,4.707 z m 2.775,2.124 c -0.943,-1.911 0.91,-4.971 1.676,-6.58 0.981,-2.052 2.247,-4.605 2.586,-7.096 1.813,-0.374 3.63,-0.733 5.445,-1.099 -3.369,4.835 -6.29,9.973 -9.707,14.775 z M 42.908,75.93 c 0.276,-1.864 3.789,-3.042 5.822,-3.697 1.787,2.594 4.498,6.289 7.848,6.62 2.652,0.264 5.905,-0.443 8.659,0.16 -0.763,0.322 -1.433,1.022 -1.85,2.204 -0.551,1.564 -0.138,3.426 0.547,5.208 -0.089,0.001 -0.18,0.011 -0.274,0.03 -2.524,0.532 -5.054,1.026 -7.581,1.541 -0.193,-0.916 -0.59,-1.791 -1.262,-2.593 -2.419,-2.88 -6.209,-4.456 -9.268,-6.535 -0.757,-0.513 -2.812,-1.786 -2.641,-2.938 z m 0.306,12.504 c 1.604,0.267 2.311,-2.088 0.846,-2.496 2.184,0.006 4.355,-0.173 6,-0.069 0.451,0.028 0.777,-0.139 0.987,-0.398 1.109,0.796 2.111,1.747 2.425,3.071 -2.763,0.593 -5.514,1.239 -8.23,2.038 -0.514,0.149 -0.795,0.507 -0.887,0.911 -0.407,-1.138 -0.876,-2.219 -1.65,-3.145 0.17,0.028 0.339,0.059 0.509,0.088 z m -2.012,2.212 c 0.525,0.885 0.778,1.963 1.078,2.914 0.491,1.551 1.197,3.052 1.859,4.535 1.095,2.453 2.345,4.837 3.605,7.212 -1.526,-0.078 -3.046,-0.215 -4.564,-0.379 -0.446,-3.398 -2.79,-5.759 -5.856,-6.774 1.454,-2.417 2.81,-4.884 3.878,-7.508 z m -5.295,9.822 c 2.407,0.588 3.797,2.183 4.314,4.119 -2.141,-0.26 -4.281,-0.53 -6.429,-0.726 0.7,-1.135 1.41,-2.262 2.115,-3.393 z"
   id="path3377"
   inkscape:connector-curvature="0" />
	<path
   d="m 49.634,64.335 c -1.155,0.414 -0.977,2.48 0.516,2.553 2.511,0.125 7.677,3.219 10.215,1.945 0.038,0.072 0.075,0.145 0.12,0.216 0.879,1.443 3.153,0.122 2.268,-1.33 -0.451,-0.738 -0.612,-1.578 -0.817,-2.41 -0.028,-0.117 -0.071,-0.217 -0.12,-0.311 -0.434,-6.167 -9.344,-6.991 -12.884,-2.911 -0.758,0.872 -0.129,2.021 0.702,2.248 z m 6.354,-2.108 c 1.842,0.265 4.13,2.146 3.079,4.26 -0.511,1.029 -7.079,-1.898 -8.729,-2.2 0.159,-0.068 0.312,-0.181 0.453,-0.344 1.277,-1.472 3.299,-1.987 5.197,-1.716 z"
   id="path3379"
   inkscape:connector-curvature="0" />
	<path
   d="m 56.816,69.135 c -1.34,0.514 -2.673,0.526 -3.917,-0.241 -1.446,-0.896 -2.762,1.381 -1.325,2.27 1.791,1.108 3.986,1.253 5.943,0.506 1.568,-0.599 0.887,-3.141 -0.701,-2.535 z"
   id="path3381"
   inkscape:connector-curvature="0" />
</g>



<rect
   width="537.203"
   height="25.504"
   x="-182.30661"
   y="540.03595"
   id="rect3389"
   style="fill:#ffffff" />
<text
   x="577.9762"
   y="358.25165"
   id="text3084"
   style="font-size:36px;fill:#ffffff;fill-opacity:0.94117647;font-family:Pecita">Liège</text>



<path
   d="m 385.88933,319.62925 c -29.78476,35.73625 41.59271,41.69489 82.18642,41.69489 24.04224,0 14.6321,0 194.37443,0"
   id="path3086"
   style="fill:none;stroke:#ffffff;stroke-width:3.4406414;stroke-linecap:round;stroke-miterlimit:10;stroke-dasharray:none"
   inkscape:connector-curvature="0" /></svg>