<?xml version="1.0" encoding="UTF-8" standalone="no"?>
<!-- Created with Inkscape (http://www.inkscape.org/) -->

<svg
   xmlns:dc="http://purl.org/dc/elements/1.1/"
   xmlns:cc="http://creativecommons.org/ns#"
   xmlns:rdf="http://www.w3.org/1999/02/22-rdf-syntax-ns#"
   xmlns:svg="http://www.w3.org/2000/svg"
   xmlns="http://www.w3.org/2000/svg"
   xmlns:xlink="http://www.w3.org/1999/xlink"
   xmlns:sodipodi="http://sodipodi.sourceforge.net/DTD/sodipodi-0.dtd"
   xmlns:inkscape="http://www.inkscape.org/namespaces/inkscape"
   version="1.1"
   width="71"
   height="80"
   viewBox="0 0 70.999999 79.999997"
   id="Calque_1"
   xml:space="preserve"
   inkscape:version="0.48.2 r9819"
   sodipodi:docname="velo2.svg"
   inkscape:export-filename="/Users/marcu/Documents/Champs Libres/Uello/Graphisme/picto/velo2.png"
   inkscape:export-xdpi="300"
   inkscape:export-ydpi="300"><sodipodi:namedview
   pagecolor="#ffffff"
   bordercolor="#666666"
   borderopacity="1"
   objecttolerance="10"
   gridtolerance="10"
   guidetolerance="10"
   inkscape:pageopacity="0"
   inkscape:pageshadow="2"
   inkscape:window-width="483"
   inkscape:window-height="454"
   id="namedview33"
   showgrid="false"
   inkscape:zoom="3"
   inkscape:cx="33.804615"
   inkscape:cy="31.895784"
   inkscape:window-x="745"
   inkscape:window-y="0"
   inkscape:window-maximized="0"
   inkscape:current-layer="Calque_1" /><metadata
   id="metadata3395"><rdf:RDF><cc:Work
       rdf:about=""><dc:format>image/svg+xml</dc:format><dc:type
         rdf:resource="http://purl.org/dc/dcmitype/StillImage" /><dc:title></dc:title></cc:Work></rdf:RDF></metadata><defs
   id="defs3393">


<radialGradient
   cx="-18.075701"
   cy="11.771"
   r="42.9356"
   id="radialGradient3172"
   xlink:href="#SVGID_1_"
   gradientUnits="userSpaceOnUse" /><linearGradient
   x1="0"
   y1="22.8022"
   x2="-1.618442e-06"
   y2="-14.2234"
   id="linearGradient3174"
   xlink:href="#SVGID_2_"
   gradientUnits="userSpaceOnUse" /><linearGradient
   x1="0.0020000001"
   y1="-10.6157"
   x2="0.0020000001"
   y2="10.3288"
   id="linearGradient3176"
   xlink:href="#SVGID_3_"
   gradientUnits="userSpaceOnUse" /></defs>
<symbol
   viewBox="-24 -24.001 48 48.001"
   transform="translate(-471.96059,8.1577003)"
   id="Puce_xA0_3_xA0_-_Bas">
	<g
   id="g3220">
		<radialGradient
   cx="-18.075701"
   cy="11.771"
   r="42.9356"
   id="SVGID_1_"
   gradientUnits="userSpaceOnUse">
			<stop
   id="stop3223"
   style="stop-color:#ffffff;stop-opacity:1"
   offset="0" />
			<stop
   id="stop3225"
   style="stop-color:#b0bfc7;stop-opacity:1"
   offset="1" />
		</radialGradient>
		<path
   d="m -14,-23.501 c -5.238,0 -9.5,4.262 -9.5,9.5 v 28 c 0,5.239 4.262,9.501 9.5,9.501 h 28 c 5.238,0 9.5,-4.262 9.5,-9.501 v -28 c 0,-5.238 -4.262,-9.5 -9.5,-9.5 h -28 z"
   id="path3227"
   style="fill:url(#radialGradient3172)"
   inkscape:connector-curvature="0" />
		<g
   id="g3229">
			<path
   d="m 14,23 c 4.962,0 9,-4.038 9,-9.001 v -28 c 0,-4.962 -4.038,-9 -9,-9 h -28 c -4.962,0 -9,4.038 -9,9 v 28 c 0,4.963 4.038,9.001 9,9.001 h 28 m 0,1 h -28 c -5.5,0 -10,-4.5 -10,-10.001 v -28 c 0,-5.5 4.5,-10 10,-10 h 28 c 5.5,0 10,4.5 10,10 v 28 C 24,19.5 19.5,24 14,24 l 0,0 z"
   id="path3231"
   style="fill:#8d98a0"
   inkscape:connector-curvature="0" />
		</g>
	</g>
	<linearGradient
   x1="0"
   y1="22.8022"
   x2="-1.618442e-06"
   y2="-14.2234"
   id="SVGID_2_"
   gradientUnits="userSpaceOnUse">
		<stop
   id="stop3234"
   style="stop-color:#ffffff;stop-opacity:1"
   offset="0" />
		<stop
   id="stop3236"
   style="stop-color:#010202;stop-opacity:1"
   offset="1" />
	</linearGradient>
	<path
   d="m 14,22 h -28 c -4.412,0 -8,-3.588 -8,-8.001 V -0.48 c 6.66,-1.72 14.121,-2.684 22,-2.684 7.879,0 15.338,0.964 22,2.684 V 13.999 C 22,18.412 18.412,22 14,22 z"
   id="path3238"
   style="fill:url(#linearGradient3174)"
   inkscape:connector-curvature="0" />
	<g
   id="g3240">
		<linearGradient
   x1="0.0020000001"
   y1="-10.6157"
   x2="0.0020000001"
   y2="10.3288"
   id="SVGID_3_"
   gradientUnits="userSpaceOnUse">
			<stop
   id="stop3243"
   style="stop-color:#706f71;stop-opacity:1"
   offset="0" />
			<stop
   id="stop3245"
   style="stop-color:#050607;stop-opacity:1"
   offset="1" />
		</linearGradient>
		<polygon
   points="-3.996,0.276 -3.996,10.522 3.998,10.522 3.998,0.276 11.644,0.276 0.002,-12.408 -11.64,0.276 "
   id="polygon3247"
   style="fill:url(#linearGradient3176)" />
		<path
   d="m 3.748,10.272 v -9.746 -0.5 h 0.5 6.827 L 0.002,-12.038 -11.071,0.026 h 6.825 0.5 v 0.5 9.746 h 7.494 m 0.5,0.5 H -4.246 V 0.526 h -7.963 L 0.002,-12.777 12.213,0.526 H 4.248 v 10.246 l 0,0 z"
   id="path3249"
   style="fill:#14272a"
   inkscape:connector-curvature="0" />
	</g>
</symbol>
















































<path
   d="m -319.73257,48.250509 c 0.252,-4.386 2.012,-7.539 5.52,-9.568 1.599,-0.924 3.478,-1.193 4.815,0.463 1.239,1.536 0.365,3.104 -0.649,4.376 -2.376,2.98 -5.604,4.344 -9.686,4.729 z"
   id="path3273"
   style="fill:#ffffff;fill-rule:evenodd"
   inkscape:connector-curvature="0" /><g
   transform="translate(-470.29392,8.4910336)"
   id="g3157"><path
     d="m 530.67502,50.680809 c -1.695,-0.047 -1.619,2.585 0.07,2.63 4.768,0.133 6.753,4.346 6.027,8.651 -0.77,4.58 -4.55,7.753 -9.234,7.19 -8.26,-0.992 -12.363,-14.499 -2.727,-15.64 0.702,2.379 1.443,4.745 2.255,7.091 0.554,1.596 3.075,0.843 2.518,-0.765 -2.814,-8.125 -4.802,-16.488 -7.091,-24.765 0.129,-0.104 0.26,-0.21 0.395,-0.32 0.432,-0.36 0.466,-1.156 0.163,-1.6 -1.186,-1.738 -2.685,-3.157 -4.894,-3.262 -2.608,-0.125 -4.796,0.351 -7.381,-0.439 -2.173,-0.667 -4.336,-1.344 -6.246,-2.604 -2.051,-1.356 -3.56,-3.602 -4.997,-5.563 1.149,0.21 2.342,0.181 3.463,-0.121 3.557,-0.955 5.261,-4.863 3.703,-8.06 -1.465,-3.01 -5.572,-5.019 -8.796,-5.053 -1.056,-0.011 -1.427,1.003 -1.147,1.776 -0.109,0.041 -0.222,0.093 -0.331,0.174 -2.802,2.015 -4.205,5.203 -1.958,8.227 0.152,0.207 0.323,0.401 0.495,0.589 -0.205,0.06 -0.406,0.177 -0.586,0.385 -3.062,3.479 -5.893,8.226 -6.206,12.952 -0.241,3.679 1.604,5.783 4.301,6.668 -0.482,0.828 -0.114,2.114 1.081,1.974 1.226,-0.146 2.455,-0.231 3.683,-0.284 -0.108,0.208 -0.147,0.458 -0.086,0.74 -0.141,0.089 -0.272,0.209 -0.384,0.366 -2.424,3.398 -5.231,6.446 -8.138,9.41 -1.5,-0.217 -3.09,-0.115 -4.671,0.325 -1.634,0.453 -0.872,2.97 0.763,2.517 0.459,-0.127 0.912,-0.218 1.361,-0.276 -1.621,1.618 -3.248,3.233 -4.829,4.887 -0.99,1.035 0.208,2.474 1.31,2.172 0.212,0.181 0.488,0.303 0.839,0.309 3.629,0.049 7.255,0.026 10.881,-0.031 0.019,1.898 -0.603,3.801 -1.845,5.239 -3.181,3.691 -9.457,3.19 -13.364,1.184 -2.156,-1.105 -4.093,-3.131 -4.464,-5.596 -0.465,-3.083 2.094,-5.458 4.393,-7.01 1.4,-0.944 0.024,-3.186 -1.386,-2.236 -2.702,1.824 -5.31,4.34 -5.621,7.772 -0.284,3.129 1.27,5.843 3.573,7.853 4.591,4.008 12.69,4.714 17.605,0.919 2.562,-1.977 3.77,-5.069 3.701,-8.175 1.807,-0.037 3.614,-0.077 5.421,-0.121 0.077,0.499 0.437,0.936 0.971,1.084 2.005,0.554 4.657,2.822 5.961,4.433 1.052,1.298 3.305,-0.065 2.237,-1.385 -1.386,-1.714 -3.6,-3.745 -5.818,-4.893 0.198,-0.049 0.395,-0.145 0.578,-0.301 5.294,-4.592 8.857,-10.713 13.573,-15.845 0.048,-0.013 0.097,-0.021 0.147,-0.035 0.612,-0.152 0.893,-0.601 0.913,-1.08 0.146,-0.149 0.289,-0.301 0.438,-0.446 0.146,-0.144 0.244,-0.296 0.307,-0.452 0.811,3.049 1.617,6.098 2.477,9.13 -4.89,0.787 -8.268,4.398 -7.549,9.804 0.734,5.533 5.283,10.318 10.862,10.987 6.182,0.744 11.016,-3.698 12.011,-9.616 0.997,-5.929 -2.517,-11.29 -8.727,-11.464 z m -32.866,-38.444 c 0.559,-0.401 0.654,-1.013 0.486,-1.531 2.046,0.135 4.008,1.296 5.415,2.725 1.841,1.869 0.894,4.381 -1.479,5.216 -1.815,0.638 -3.943,-0.301 -5.265,-1.533 -1.798,-1.682 -0.908,-3.616 0.843,-4.877 z m -6.269,23.251 c -1.075,-1.064 -0.826,-3.057 -0.58,-4.374 0.688,-3.689 2.871,-7.313 5.32,-10.101 0.237,-0.268 0.333,-0.558 0.335,-0.84 0.317,0.195 0.649,0.368 0.99,0.518 -0.136,0.07 -0.258,0.157 -0.361,0.259 -0.243,0.154 -0.444,0.393 -0.547,0.74 -1.071,3.645 -2.823,7.499 -3.114,11.323 -0.117,1.54 0.338,2.741 1.204,3.713 -1.2,-0.061 -2.359,-0.363 -3.247,-1.238 z m -6.483,22.854 c 1.467,-1.493 2.946,-2.967 4.412,-4.453 1.526,0.514 2.842,1.572 3.789,3.213 0.223,0.387 0.406,0.792 0.557,1.209 -2.919,0.043 -5.839,0.052 -8.758,0.031 z m 11.446,-0.083 c -0.137,-0.524 -0.31,-1.04 -0.521,-1.537 -0.971,-2.29 -2.596,-3.905 -4.553,-4.842 2.384,-2.482 4.672,-5.049 6.754,-7.814 1.7,4.575 3.212,9.178 3.696,14.074 -1.79,0.046 -3.585,0.084 -5.376,0.119 z m 3.105,-17.788 c 0.756,0.006 1.509,0.029 2.265,0.068 1.156,0.58 2.179,1.303 2.928,2.416 -1.133,0.059 -2.266,0.122 -3.398,0.199 -0.271,0.019 -0.491,0.107 -0.672,0.234 -0.33,-0.896 -0.667,-1.79 -1.008,-2.685 -0.033,-0.085 -0.075,-0.161 -0.115,-0.232 z m 4.651,15.57 c -0.534,-3.522 -1.515,-6.909 -2.676,-10.265 1.418,-0.095 2.834,-0.171 4.253,-0.25 0.719,3.364 -0.209,7.148 -1.577,10.515 z m 3.108,-1.139 c 0.985,-3.127 1.575,-6.533 1.14,-9.532 2.381,-0.149 4.755,-0.351 7.113,-0.702 -2.779,3.395 -5.29,7.014 -8.253,10.234 z m 12.02,-14.417 c -0.334,0.326 -0.661,0.66 -0.981,0.999 -3.494,0.795 -7.038,1.099 -10.596,1.306 -0.821,-1.993 -2.306,-3.651 -4.721,-4.69 -1.789,-0.769 -6.665,-1.73 -6.9,-4.254 -0.132,-1.398 0.449,-2.915 0.837,-4.232 0.513,-1.741 1.055,-3.474 1.588,-5.21 2.169,2.749 4.512,5.106 7.965,6.406 2.329,0.876 4.755,1.776 7.257,1.912 2.234,0.121 4.035,-0.557 5.637,0.462 -0.03,0.084 -0.05,0.174 -0.06,0.267 -0.546,-0.132 -1.049,-0.549 -1.777,-0.763 -1.631,-0.481 -2.251,2.076 -0.633,2.555 0.918,0.269 1.638,1.1 2.662,1.056 0.149,-0.005 0.29,-0.023 0.43,-0.042 0.387,1.409 0.77,2.821 1.146,4.232 -0.479,-0.447 -1.254,-0.598 -1.854,-0.004 z"
     id="path3357"
     inkscape:connector-curvature="0" /></g>



<rect
   width="537.203"
   height="25.504"
   x="-471.9606"
   y="577.93372"
   id="rect3389"
   style="fill:#ffffff" />
<text
   x="288.32217"
   y="396.14938"
   id="text3084"
   style="font-size:36px;fill:#ffffff;fill-opacity:0.94117647;font-family:Pecita">Liège</text>



<path
   d="m 96.235342,357.52697 c -29.78476,35.73625 41.592708,41.69489 82.186418,41.69489 24.04224,0 14.6321,0 194.37443,0"
   id="path3086"
   style="fill:none;stroke:#ffffff;stroke-width:3.4406414;stroke-linecap:round;stroke-miterlimit:10;stroke-dasharray:none"
   inkscape:connector-curvature="0" /><path
   d="m 87.123912,349.94791 c -19.91371,3.47553 -31.53004,14.77102 -28.21109,45.18192"
   id="path3856"
   style="fill:none;stroke:#ffffff;stroke-width:12.85900021;stroke-linecap:butt;stroke-linejoin:miter;stroke-miterlimit:4;stroke-opacity:1;stroke-dasharray:none"
   inkscape:connector-curvature="0" /></svg>