<?xml version="1.0" encoding="UTF-8" standalone="no"?>
<!-- Created with Inkscape (http://www.inkscape.org/) -->

<svg
   xmlns:dc="http://purl.org/dc/elements/1.1/"
   xmlns:cc="http://creativecommons.org/ns#"
   xmlns:rdf="http://www.w3.org/1999/02/22-rdf-syntax-ns#"
   xmlns:svg="http://www.w3.org/2000/svg"
   xmlns="http://www.w3.org/2000/svg"
   xmlns:sodipodi="http://sodipodi.sourceforge.net/DTD/sodipodi-0.dtd"
   xmlns:inkscape="http://www.inkscape.org/namespaces/inkscape"
   version="1.1"
   width="104"
   height="80"
   viewBox="0 0 104 79.999997"
   id="Calque_1"
   xml:space="preserve"
   inkscape:version="0.48.2 r9819"
   sodipodi:docname="velo3.svg"><sodipodi:namedview
   pagecolor="#ffffff"
   bordercolor="#666666"
   borderopacity="1"
   objecttolerance="10"
   gridtolerance="10"
   guidetolerance="10"
   inkscape:pageopacity="0"
   inkscape:pageshadow="2"
   inkscape:window-width="868"
   inkscape:window-height="597"
   id="namedview30"
   showgrid="false"
   inkscape:zoom="4"
   inkscape:cx="50.700924"
   inkscape:cy="31.15765"
   inkscape:window-x="249"
   inkscape:window-y="73"
   inkscape:window-maximized="0"
   inkscape:current-layer="Calque_1" /><metadata
   id="metadata3395"><rdf:RDF><cc:Work
       rdf:about=""><dc:format>image/svg+xml</dc:format><dc:type
         rdf:resource="http://purl.org/dc/dcmitype/StillImage" /><dc:title /></cc:Work></rdf:RDF></metadata><defs
   id="defs3393">


</defs>
<symbol
   viewBox="-24 -24.001 48 48.001"
   transform="translate(-594.60049,-335.1202)"
   id="Puce_xA0_3_xA0_-_Bas">
	<g
   id="g3220">
		<radialGradient
   cx="-18.075701"
   cy="11.771"
   r="42.9356"
   id="SVGID_1_"
   gradientUnits="userSpaceOnUse">
			<stop
   id="stop3223"
   style="stop-color:#ffffff;stop-opacity:1"
   offset="0" />
			<stop
   id="stop3225"
   style="stop-color:#b0bfc7;stop-opacity:1"
   offset="1" />
		</radialGradient>
		<path
   d="m -14,-23.501 c -5.238,0 -9.5,4.262 -9.5,9.5 v 28 c 0,5.239 4.262,9.501 9.5,9.501 h 28 c 5.238,0 9.5,-4.262 9.5,-9.501 v -28 c 0,-5.238 -4.262,-9.5 -9.5,-9.5 h -28 z"
   id="path3227"
   style="fill:url(#SVGID_1_)"
   inkscape:connector-curvature="0" />
		<g
   id="g3229">
			<path
   d="m 14,23 c 4.962,0 9,-4.038 9,-9.001 v -28 c 0,-4.962 -4.038,-9 -9,-9 h -28 c -4.962,0 -9,4.038 -9,9 v 28 c 0,4.963 4.038,9.001 9,9.001 h 28 m 0,1 h -28 c -5.5,0 -10,-4.5 -10,-10.001 v -28 c 0,-5.5 4.5,-10 10,-10 h 28 c 5.5,0 10,4.5 10,10 v 28 C 24,19.5 19.5,24 14,24 l 0,0 z"
   id="path3231"
   style="fill:#8d98a0"
   inkscape:connector-curvature="0" />
		</g>
	</g>
	<linearGradient
   x1="0"
   y1="22.8022"
   x2="-1.618442e-06"
   y2="-14.2234"
   id="SVGID_2_"
   gradientUnits="userSpaceOnUse">
		<stop
   id="stop3234"
   style="stop-color:#ffffff;stop-opacity:1"
   offset="0" />
		<stop
   id="stop3236"
   style="stop-color:#010202;stop-opacity:1"
   offset="1" />
	</linearGradient>
	<path
   d="m 14,22 h -28 c -4.412,0 -8,-3.588 -8,-8.001 V -0.48 c 6.66,-1.72 14.121,-2.684 22,-2.684 7.879,0 15.338,0.964 22,2.684 V 13.999 C 22,18.412 18.412,22 14,22 z"
   id="path3238"
   style="fill:url(#SVGID_2_)"
   inkscape:connector-curvature="0" />
	<g
   id="g3240">
		<linearGradient
   x1="0.0020000001"
   y1="-10.6157"
   x2="0.0020000001"
   y2="10.3288"
   id="SVGID_3_"
   gradientUnits="userSpaceOnUse">
			<stop
   id="stop3243"
   style="stop-color:#706f71;stop-opacity:1"
   offset="0" />
			<stop
   id="stop3245"
   style="stop-color:#050607;stop-opacity:1"
   offset="1" />
		</linearGradient>
		<polygon
   points="-3.996,10.522 3.998,10.522 3.998,0.276 11.644,0.276 0.002,-12.408 -11.64,0.276 -3.996,0.276 "
   id="polygon3247"
   style="fill:url(#SVGID_3_)" />
		<path
   d="m 3.748,10.272 v -9.746 -0.5 h 0.5 6.827 L 0.002,-12.038 -11.071,0.026 h 6.825 0.5 v 0.5 9.746 h 7.494 m 0.5,0.5 H -4.246 V 0.526 h -7.963 L 0.002,-12.777 12.213,0.526 H 4.248 v 10.246 l 0,0 z"
   id="path3249"
   style="fill:#14272a"
   inkscape:connector-curvature="0" />
	</g>
</symbol>
















































<path
   d="m -442.37247,-295.0274 c 0.252,-4.386 2.012,-7.539 5.52,-9.568 1.599,-0.924 3.478,-1.193 4.815,0.463 1.239,1.536 0.365,3.104 -0.649,4.376 -2.376,2.98 -5.604,4.344 -9.686,4.729 z"
   id="path3273"
   style="fill:#ffffff;fill-rule:evenodd"
   inkscape:connector-curvature="0" /><g
   transform="translate(-656.54909,8.4722307)"
   id="g3160"><path
     d="m 759.21102,63.772809 c -0.929,-3.15 -4.259,-4.682 -7.287,-4.857 -0.285,-0.018 -0.503,0.066 -0.664,0.202 -1.551,-4.784 -2.327,-9.919 -2.951,-14.869 0.499,-0.169 0.978,-0.44 1.465,-0.937 0.382,-0.389 0.421,-1.099 -0.009,-1.477 -4.861,-4.31 -13.475,-0.591 -17.526,-5.227 0.075,-0.656 0.142,-1.312 0.157,-1.969 0.011,-0.365 -0.141,-0.626 -0.36,-0.792 1.629,-0.265 3.103,-1.264 3.669,-2.917 0.152,-0.442 0.23,-0.878 0.245,-1.302 1.845,-0.092 3.675,-0.357 5.502,-0.897 1.289,-0.385 0.729,-2.399 -0.567,-2.015 -1.787,0.532 -3.582,0.776 -5.39,0.849 -0.495,-1.013 -1.363,-1.872 -2.403,-2.496 -1.162,-0.697 -2.202,1.118 -1.047,1.809 0.335,0.201 0.65,0.431 0.917,0.688 -1.604,-0.054 -3.216,-0.201 -4.836,-0.365 0.401,-0.791 1.133,-1.414 1.973,-1.81 1.217,-0.578 0.145,-2.375 -1.063,-1.8 -4.363,2.065 -4.158,8.195 -0.06,9.894 -0.176,0.158 -0.286,0.374 -0.29,0.635 -2.759,2.383 -3.738,5.811 -3.213,8.914 -0.027,0.011 -0.057,0.013 -0.086,0.023 -2.433,0.928 -5.692,1.14 -5.419,-2.313 0.262,-3.336 3.85,-5.184 6.805,-5.262 1.345,-0.034 1.338,-2.125 -0.01,-2.089 -4.365,0.114 -8.305,2.857 -8.886,7.361 -0.217,1.7 0.503,3.295 1.84,4.316 1.747,1.333 4.395,0.702 6.235,0 0.031,-0.012 0.058,-0.027 0.088,-0.042 0.692,1.697 1.885,3.172 3.521,4.154 -1.542,-0.262 -3.028,-0.735 -4.514,-1.31 -1.257,-0.488 -1.786,1.536 -0.544,2.018 1.053,0.406 2.11,0.755 3.186,1.026 0.016,0.102 0.042,0.206 0.091,0.311 0.22,0.468 0.432,0.938 0.643,1.41 -0.164,0.046 -0.326,0.138 -0.47,0.301 -1.533,1.72 -2.868,3.558 -4.015,5.511 -0.828,-0.139 -1.691,-0.162 -2.551,-0.058 -1.322,0.16 -1.327,2.25 0.01,2.089 0.492,-0.058 0.983,-0.077 1.468,-0.054 -0.305,0.608 -0.588,1.232 -0.859,1.86 -1.256,0.038 -1.213,2.029 0.098,2.086 1.786,0.081 3.565,0.147 5.344,0.162 0.048,2.121 -1.797,3.808 -3.731,4.506 -5.168,1.868 -12.781,-5.331 -5.475,-7.895 1.263,-0.443 0.71,-2.458 -0.566,-2.012 -3.504,1.229 -5.773,3.99 -4.051,7.673 1.647,3.523 6.103,5.113 9.717,4.498 3.301,-0.558 6.184,-3.403 6.157,-6.781 2.03,-0.032 4.062,-0.157 6.093,-0.422 1.044,0.657 2.152,1.271 3.074,2.093 1.004,0.893 2.479,-0.586 1.471,-1.485 -0.792,-0.704 -1.682,-1.277 -2.58,-1.839 3.563,-3.186 6.714,-6.772 9.945,-10.287 0.773,3.993 1.835,7.925 3.484,11.587 0.551,1.227 2.346,0.152 1.798,-1.063 -0.311,-0.691 -0.597,-1.396 -0.864,-2.106 0.005,0 0.009,0 0.013,0.001 1.981,0.113 3.815,0.881 4.917,2.593 1.074,1.668 0.478,3.603 -1.047,4.725 -2.174,1.598 -5.126,1.43 -7.354,0.099 -2.584,-1.545 -2.494,-4.263 -0.353,-6.101 1.021,-0.879 -0.47,-2.343 -1.485,-1.469 -2.732,2.347 -2.987,5.665 -0.537,8.32 2.554,2.761 6.771,2.883 9.98,1.421 2.647,-1.202 3.975,-4.051 3.157,-6.817 z m -31.355,-34.54 c 0.082,0.029 0.167,0.05 0.261,0.06 1.921,0.191 3.833,0.354 5.732,0.376 -0.01,0.145 -0.031,0.294 -0.07,0.447 -0.316,1.271 -1.654,1.752 -2.82,1.726 -1.486,-0.035 -2.795,-1.188 -3.103,-2.609 z m 1.616,6.971 c 0.194,0.37 0.404,0.72 0.631,1.047 -0.092,0.837 -0.188,1.675 -0.239,2.515 -0.099,1.653 0.314,3.075 0.841,4.625 0.507,1.496 1.15,2.728 2.06,3.805 -5.462,-1.125 -7.216,-8.029 -3.293,-11.992 z m 2.417,15.293 c 0.73,0.008 1.056,-0.594 0.997,-1.153 0.487,0.067 0.992,0.106 1.519,0.104 0.277,-0.002 0.492,-0.092 0.652,-0.231 1.627,1.063 3.808,1.789 3.07,4.04 -0.75,2.283 -1.813,4.438 -2.664,6.687 -2.546,-2.693 -3.853,-6.207 -5.338,-9.567 0.583,0.068 1.171,0.111 1.764,0.12 z m -2.61,3.097 c 1.208,2.734 2.486,5.423 4.527,7.642 -1.558,0.154 -3.119,0.219 -4.685,0.23 -0.574,-1.58 -1.72,-2.716 -3.15,-3.391 0.969,-1.58 2.077,-3.076 3.308,-4.481 z m -2.481,7.859 c -0.858,-0.017 -1.716,-0.045 -2.573,-0.079 0.229,-0.503 0.466,-1.002 0.722,-1.492 0.749,0.326 1.392,0.837 1.851,1.571 z m 20.156,-12.357 c -2.863,3.079 -5.624,6.252 -8.622,9.194 0.615,-1.49 1.258,-2.966 1.814,-4.489 0.612,-1.683 0.246,-3.182 -1.068,-4.386 -2,-1.833 -4.518,-2.528 -5.79,-5.112 -0.736,-1.497 -1.313,-3.29 -1.348,-4.957 -0.01,-0.381 0.006,-0.762 0.031,-1.143 1.385,1.056 3.1,1.702 5.121,1.968 2.761,0.364 6.202,-0.088 8.973,0.877 -0.059,0.137 -0.083,0.298 -0.062,0.486 0.004,0.025 0.007,0.048 0.009,0.069 -0.312,0.03 -0.623,0.063 -0.924,0.129 -1.315,0.292 -0.749,2.305 0.564,2.013 0.211,-0.047 0.414,-0.084 0.613,-0.117 0.228,1.79 0.479,3.589 0.776,5.388 -0.029,0.03 -0.059,0.051 -0.087,0.08 z"
     id="path3359"
     inkscape:connector-curvature="0" /><path
     d="m 722.73702,61.906809 c -0.804,-5.751 -6.025,-9.644 -11.659,-9.7 -0.748,-0.008 -1.152,0.522 -1.22,1.098 -2.027,-5.673 -3.995,-11.362 -5.351,-17.235 1.216,-0.931 2.232,-2.121 1.573,-3.412 -0.833,-1.633 -3.494,-1.451 -5.01,-1.472 -4.944,-0.07 -10.979,-0.283 -14.855,-3.444 0.215,-0.392 0.373,-0.813 0.407,-1.297 0.111,-1.633 -0.876,-2.895 -1.979,-3.977 0.834,-0.073 1.674,-0.313 2.497,-0.74 2.518,-1.309 3.33,-4.258 2.639,-6.854 -0.037,-0.139 -0.096,-0.255 -0.162,-0.362 0.193,-0.406 0.197,-0.885 -0.043,-1.227 0.258,-0.437 0.289,-1.006 -0.146,-1.489 -2.513,-2.791 -6.996,-2.659 -9.801,-0.312 -1.617,1.352 -2.321,2.982 -2.738,5.014 -0.514,2.503 -0.27,5.19 -3.509,5.29 -1.346,0.04 -1.597,1.78 -0.715,2.349 0.025,0.454 0.301,0.863 0.901,0.97 2.186,0.387 4.007,-0.05 5.539,-1.297 -3.262,5.087 -2.168,11.997 2.145,15.882 -0.059,0 -0.115,10e-4 -0.173,0.008 -1.449,-0.443 -2.801,-1.133 -4.085,-2.115 -1.297,-0.992 -2.578,1.19 -1.302,2.167 1.311,1.001 2.721,1.74 4.21,2.238 0.148,1.059 0.329,2.108 0.542,3.149 -2.025,3.043 -4.247,5.925 -6.613,8.689 -0.335,-0.327 -0.692,-0.631 -1.059,-0.921 0.388,-1.961 0.776,-3.924 1.091,-5.901 0.024,-0.147 0.019,-0.286 0,-0.418 0.826,-0.008 1.656,-0.017 2.484,-0.011 1.63,0.015 1.659,-2.513 0.029,-2.525 -4.531,-0.034 -9.051,0.168 -13.575,0.396 -1.619,0.083 -1.657,2.609 -0.029,2.526 0.666,-0.033 1.334,-0.065 2.001,-0.097 0.088,1.067 0.233,2.116 0.44,3.144 -1.471,0.056 -1.441,2.414 0.124,2.522 0.172,0.011 0.347,0.033 0.521,0.058 0.666,2.301 1.567,4.532 2.607,6.737 -0.495,0.688 -0.181,1.999 0.966,2.117 1.862,0.188 3.728,0.322 5.593,0.427 0.112,2.12 -0.823,4.198 -3.332,5.735 -3.558,2.173 -8.111,1.771 -10.238,-2.018 -1.89,-3.362 -0.781,-7.727 1.714,-10.421 1.104,-1.19 -0.654,-3.003 -1.764,-1.807 -3.413,3.686 -4.387,8.923 -2.147,13.479 2.328,4.733 8.128,5.593 12.571,3.517 3.604,-1.682 5.676,-4.78 5.67,-8.366 3.122,0.125 6.246,0.173 9.374,0.21 0.243,0.003 0.449,-0.057 0.623,-0.152 1.734,1.083 3.414,2.374 5.378,2.946 1.566,0.457 2.261,-1.974 0.7,-2.429 -1.618,-0.47 -3.047,-1.54 -4.482,-2.484 4.723,-5.667 8.113,-12.03 14.961,-15.58 0.048,-0.026 0.083,-0.056 0.124,-0.083 0.84,2.686 1.757,5.349 2.696,8.004 -0.09,0.006 -0.188,0.021 -0.284,0.047 -5.165,1.376 -8.194,5.519 -6.159,10.783 1.919,4.965 7.091,8.654 12.403,8.763 5.509,0.11 10.699,-4.427 9.907,-10.119 z m -40.85,-42.596 c 0.251,-0.707 0.518,-1.407 0.908,-2.041 0.98,-1.595 2.746,-2.181 4.497,-2.089 0,0.108 0.012,0.219 0.043,0.337 0.922,3.445 -2.694,5.606 -5.448,3.793 z m -2.852,-0.414 c 0.37,-2.207 0.584,-4.355 2.563,-5.738 1.454,-1.015 3.376,-1.245 4.888,-0.468 -1.998,0.104 -3.806,0.873 -5.278,2.517 -1.1,1.224 -1.635,3.135 -2.392,4.729 0.082,-0.33 0.158,-0.673 0.219,-1.04 z m 2.177,6.322 c 0.512,1.069 1.116,1.993 1.795,2.79 -0.613,0.896 -1.021,1.799 -1.045,2.941 -0.063,2.926 2.056,6.336 4.238,8.699 -5.977,-2.035 -8.279,-9.259 -4.988,-14.43 z m 3.391,17.576 c 0.546,0.014 0.907,-0.261 1.093,-0.636 0.484,0.142 0.984,0.26 1.505,0.342 0.638,0.1 1.128,-0.23 1.392,-0.675 1.962,1.513 3.705,2.571 3.668,5.588 -0.049,3.903 -2.74,7.78 -5.124,10.947 -1.587,-4.243 -3.069,-8.5 -4.047,-12.9 0.019,-0.222 -0.027,-0.434 -0.13,-0.616 -0.156,-0.742 -0.297,-1.488 -0.421,-2.239 0.675,0.1 1.362,0.168 2.064,0.189 z m -13.225,3.836 c -0.265,1.609 -0.571,3.215 -0.887,4.819 -0.836,-0.424 -1.713,-0.761 -2.618,-1.006 -0.282,-1.201 -0.49,-2.425 -0.591,-3.679 1.366,-0.057 2.731,-0.103 4.096,-0.134 z m -1.423,7.548 c -0.104,0.546 -0.205,1.094 -0.306,1.641 -0.318,-0.763 -0.61,-1.534 -0.881,-2.31 0.407,0.198 0.802,0.422 1.187,0.669 z m 2.474,5.003 c 0.405,-0.44 0.81,-0.885 1.212,-1.329 0.301,0.473 0.556,0.963 0.768,1.463 -0.662,-0.039 -1.319,-0.084 -1.98,-0.134 z m 4.503,-0.494 c -0.355,-1.043 -0.857,-2.013 -1.465,-2.903 2.028,-2.354 3.954,-4.787 5.751,-7.326 0.999,3.797 2.328,7.5 3.719,11.197 -2.595,-0.035 -5.188,-0.091 -7.779,-0.2 -0.068,-0.255 -0.14,-0.511 -0.226,-0.768 z m 25.871,-16.375 c -3.16,1.636 -5.845,3.726 -8.16,6.377 0.475,-2.991 -0.212,-5.851 -3.128,-8.004 -1.632,-1.201 -3.114,-2.181 -4.356,-3.844 -1.201,-1.61 -3.46,-5.032 -2.333,-7.039 0.008,-0.015 0.017,-0.027 0.025,-0.042 2.641,2.021 6.025,2.954 9.766,3.739 2.077,0.437 4.319,0.201 6.427,0.212 0.14,0 0.278,0.004 0.417,0.004 -0.002,0.101 0.003,0.204 0.026,0.313 0.058,0.3 0.123,0.597 0.183,0.895 -0.243,0.149 -0.485,0.297 -0.723,0.443 -1.386,0.851 -0.143,3.052 1.25,2.195 0.016,-0.01 0.037,-0.022 0.053,-0.033 0.378,1.558 0.797,3.103 1.245,4.64 -0.219,-0.019 -0.452,0.02 -0.692,0.144 z m 10.06,27.183 c -7.518,0.237 -15.933,-11.828 -5.635,-14.576 0.182,-0.048 0.331,-0.125 0.453,-0.22 0.883,2.466 1.771,4.93 2.619,7.406 0.522,1.53 2.974,0.901 2.444,-0.644 -0.803,-2.343 -1.643,-4.677 -2.479,-7.01 0.195,0.167 0.454,0.277 0.784,0.281 4.291,0.044 8.044,2.698 9.095,6.931 1.127,4.541 -3.152,7.703 -7.281,7.832 z"
     id="path3383"
     inkscape:connector-curvature="0" /></g>



<rect
   width="537.203"
   height="25.504"
   x="-594.60046"
   y="234.65581"
   id="rect3389"
   style="fill:#ffffff" />
<text
   x="165.68228"
   y="52.871471"
   id="text3084"
   style="font-size:36px;fill:#ffffff;fill-opacity:0.94117647;font-family:Pecita">Liège</text>



<path
   d="M -35.515988,6.6700104 C -55.429698,10.145541 -67.046028,21.441031 -63.727078,51.85193"
   id="path3856"
   style="fill:none;stroke:#ffffff;stroke-width:12.85900021;stroke-linecap:butt;stroke-linejoin:miter;stroke-miterlimit:4;stroke-opacity:1;stroke-dasharray:none"
   inkscape:connector-curvature="0" /></svg>