<?xml version="1.0" encoding="UTF-8" standalone="no"?>
<!-- Generator: Adobe Illustrator 16.0.0, SVG Export Plug-In . SVG Version: 6.00 Build 0)  -->

<svg
   xmlns:dc="http://purl.org/dc/elements/1.1/"
   xmlns:cc="http://creativecommons.org/ns#"
   xmlns:rdf="http://www.w3.org/1999/02/22-rdf-syntax-ns#"
   xmlns:svg="http://www.w3.org/2000/svg"
   xmlns="http://www.w3.org/2000/svg"
   xmlns:sodipodi="http://sodipodi.sourceforge.net/DTD/sodipodi-0.dtd"
   xmlns:inkscape="http://www.inkscape.org/namespaces/inkscape"
   version="1.1"
   id="Calque_1"
   x="0px"
   y="0px"
   width="22"
   height="22"
   viewBox="0 0 22 21.999998"
   enable-background="new 0 0 841.89 595.28"
   xml:space="preserve"
   inkscape:version="0.48.2 r9819"
   sodipodi:docname="info.svg"
   inkscape:export-filename="/Users/marcu/Sites/Uello/web/img/menu/personne.png"
   inkscape:export-xdpi="300"
   inkscape:export-ydpi="300"><metadata
   id="metadata3395"><rdf:RDF><cc:Work
       rdf:about=""><dc:format>image/svg+xml</dc:format><dc:type
         rdf:resource="http://purl.org/dc/dcmitype/StillImage" /><dc:title></dc:title></cc:Work></rdf:RDF></metadata><defs
   id="defs3393">




















</defs><sodipodi:namedview
   pagecolor="#ffffff"
   bordercolor="#666666"
   borderopacity="1"
   objecttolerance="10"
   gridtolerance="10"
   guidetolerance="10"
   inkscape:pageopacity="0"
   inkscape:pageshadow="2"
   inkscape:window-width="1237"
   inkscape:window-height="674"
   id="namedview3391"
   showgrid="false"
   inkscape:zoom="7.8113393"
   inkscape:cx="27.315266"
   inkscape:cy="12.106402"
   inkscape:window-x="0"
   inkscape:window-y="0"
   inkscape:window-maximized="0"
   inkscape:current-layer="Calque_1"
   fit-margin-top="0"
   fit-margin-left="0"
   fit-margin-right="0"
   fit-margin-bottom="0" />
<symbol
   id="Puce_xA0_3_xA0_-_Bas"
   viewBox="-24 -24.001 48 48.001"
   transform="translate(-331.48399,-80.082147)">
	<g
   id="g3220">
		<radialGradient
   id="SVGID_1_"
   cx="-18.075701"
   cy="11.771"
   r="42.9356"
   gradientUnits="userSpaceOnUse">
			<stop
   offset="0"
   style="stop-color:#FFFFFF"
   id="stop3223" />
			<stop
   offset="1"
   style="stop-color:#B0BFC7"
   id="stop3225" />
		</radialGradient>
		<path
   d="m -14,-23.501 c -5.238,0 -9.5,4.262 -9.5,9.5 v 28 c 0,5.239 4.262,9.501 9.5,9.501 h 28 c 5.238,0 9.5,-4.262 9.5,-9.501 v -28 c 0,-5.238 -4.262,-9.5 -9.5,-9.5 h -28 z"
   id="path3227"
   inkscape:connector-curvature="0"
   style="fill:url(#SVGID_1_)" />
		<g
   id="g3229">
			<path
   d="m 14,23 c 4.962,0 9,-4.038 9,-9.001 v -28 c 0,-4.962 -4.038,-9 -9,-9 h -28 c -4.962,0 -9,4.038 -9,9 v 28 c 0,4.963 4.038,9.001 9,9.001 h 28 m 0,1 h -28 c -5.5,0 -10,-4.5 -10,-10.001 v -28 c 0,-5.5 4.5,-10 10,-10 h 28 c 5.5,0 10,4.5 10,10 v 28 C 24,19.5 19.5,24 14,24 l 0,0 z"
   id="path3231"
   inkscape:connector-curvature="0"
   style="fill:#8d98a0" />
		</g>
	</g>
	<linearGradient
   id="SVGID_2_"
   gradientUnits="userSpaceOnUse"
   x1="0"
   y1="22.8022"
   x2="-1.618442e-06"
   y2="-14.2234">
		<stop
   offset="0"
   style="stop-color:#FFFFFF"
   id="stop3234" />
		<stop
   offset="1"
   style="stop-color:#010202"
   id="stop3236" />
	</linearGradient>
	<path
   d="m 14,22 h -28 c -4.412,0 -8,-3.588 -8,-8.001 V -0.48 c 6.66,-1.72 14.121,-2.684 22,-2.684 7.879,0 15.338,0.964 22,2.684 V 13.999 C 22,18.412 18.412,22 14,22 z"
   id="path3238"
   inkscape:connector-curvature="0"
   style="fill:url(#SVGID_2_)" />
	<g
   id="g3240">
		<linearGradient
   id="SVGID_3_"
   gradientUnits="userSpaceOnUse"
   x1="0.0020000001"
   y1="-10.6157"
   x2="0.0020000001"
   y2="10.3288">
			<stop
   offset="0"
   style="stop-color:#706F71"
   id="stop3243" />
			<stop
   offset="1"
   style="stop-color:#050607"
   id="stop3245" />
		</linearGradient>
		<polygon
   points="3.998,0.276 11.644,0.276 0.002,-12.408 -11.64,0.276 -3.996,0.276 -3.996,10.522 3.998,10.522 "
   id="polygon3247"
   style="fill:url(#SVGID_3_)" />
		<path
   d="m 3.748,10.272 v -9.746 -0.5 h 0.5 6.827 L 0.002,-12.038 -11.071,0.026 h 6.825 0.5 v 0.5 9.746 h 7.494 m 0.5,0.5 H -4.246 V 0.526 h -7.963 L 0.002,-12.777 12.213,0.526 H 4.248 v 10.246 l 0,0 z"
   id="path3249"
   inkscape:connector-curvature="0"
   style="fill:#14272a" />
	</g>
</symbol>




























<g
   id="g3301"
   transform="translate(-327.13039,-10.831963)"
   style="fill:#ffffff">
	<path
   d="m 334.802,18.868 c -0.657,-0.376 -2.145,-1.172 -2.005,-2.149 0.117,-0.817 1.113,-1.312 1.788,-1.578 2.521,-0.996 5.708,-0.534 7.821,1.158 2.002,1.605 0.275,3.371 -1.019,4.776 -1.231,1.339 -2.952,2.963 -2.761,4.959 0.115,1.194 1.995,1.206 1.879,0 -0.111,-1.159 0.836,-2.116 1.553,-2.915 0.891,-0.992 1.843,-1.936 2.554,-3.073 1.793,-2.87 -0.558,-5.39 -3.206,-6.49 -2.798,-1.161 -6.678,-1.214 -9.148,0.771 -0.887,0.712 -1.471,1.737 -1.294,2.898 0.232,1.532 1.642,2.55 2.89,3.265 1.052,0.603 2,-1.02 0.948,-1.622 l 0,0 z"
   id="path3303"
   inkscape:connector-curvature="0"
   style="fill:#ffffff" />
	<path
   d="m 338.627,28.99 c 10e-4,0.316 0.021,0.617 0.071,0.932 0.054,0.353 0.241,0.64 0.454,0.914 0.313,0.406 1,0.328 1.327,0 0.396,-0.396 0.313,-0.923 0,-1.328 0.178,0.229 -0.022,-0.158 0.079,0.119 -0.019,-0.055 -0.065,-0.354 -0.035,-0.1 -0.021,-0.178 -0.018,-0.359 -0.018,-0.537 0,-0.512 -0.428,-0.939 -0.939,-0.939 -0.511,0 -0.939,0.428 -0.939,0.939 l 0,0 z"
   id="path3305"
   inkscape:connector-curvature="0"
   style="fill:#ffffff" />
</g>


























</svg>