<?xml version="1.0" encoding="UTF-8" standalone="no"?>
<!-- Generator: Adobe Illustrator 16.0.0, SVG Export Plug-In . SVG Version: 6.00 Build 0)  -->

<svg
   xmlns:dc="http://purl.org/dc/elements/1.1/"
   xmlns:cc="http://creativecommons.org/ns#"
   xmlns:rdf="http://www.w3.org/1999/02/22-rdf-syntax-ns#"
   xmlns:svg="http://www.w3.org/2000/svg"
   xmlns="http://www.w3.org/2000/svg"
   xmlns:xlink="http://www.w3.org/1999/xlink"
   xmlns:sodipodi="http://sodipodi.sourceforge.net/DTD/sodipodi-0.dtd"
   xmlns:inkscape="http://www.inkscape.org/namespaces/inkscape"
   version="1.1"
   id="Calque_1"
   x="0px"
   y="0px"
   width="22"
   height="22"
   viewBox="0 0 21.999999 21.999999"
   enable-background="new 0 0 841.89 595.28"
   xml:space="preserve"
   inkscape:version="0.48.2 r9819"
   sodipodi:docname="connection.svg"
   inkscape:export-filename="/Users/marcu/Sites/Uello/web/img/menu/connection.png"
   inkscape:export-xdpi="300"
   inkscape:export-ydpi="300"><metadata
   id="metadata3395"><rdf:RDF><cc:Work
       rdf:about=""><dc:format>image/svg+xml</dc:format><dc:type
         rdf:resource="http://purl.org/dc/dcmitype/StillImage" /><dc:title /></cc:Work></rdf:RDF></metadata><defs
   id="defs3393">




















<radialGradient
   inkscape:collect="always"
   xlink:href="#SVGID_1_"
   id="radialGradient3999"
   gradientUnits="userSpaceOnUse"
   cx="-18.075701"
   cy="11.771"
   r="42.9356" /><linearGradient
   inkscape:collect="always"
   xlink:href="#SVGID_2_"
   id="linearGradient4001"
   gradientUnits="userSpaceOnUse"
   x1="0"
   y1="22.8022"
   x2="-1.618442e-06"
   y2="-14.2234" /><linearGradient
   inkscape:collect="always"
   xlink:href="#SVGID_3_"
   id="linearGradient4003"
   gradientUnits="userSpaceOnUse"
   x1="0.0020000001"
   y1="-10.6157"
   x2="0.0020000001"
   y2="10.3288" /></defs><sodipodi:namedview
   pagecolor="#000000"
   bordercolor="#666666"
   borderopacity="1"
   objecttolerance="10"
   gridtolerance="10"
   guidetolerance="10"
   inkscape:pageopacity="0"
   inkscape:pageshadow="2"
   inkscape:window-width="1237"
   inkscape:window-height="674"
   id="namedview3391"
   showgrid="false"
   inkscape:zoom="8"
   inkscape:cx="-2.7943666"
   inkscape:cy="4.5316481"
   inkscape:window-x="0"
   inkscape:window-y="0"
   inkscape:window-maximized="0"
   inkscape:current-layer="Calque_1"
   fit-margin-top="0"
   fit-margin-left="0"
   fit-margin-right="0"
   fit-margin-bottom="0" />
<symbol
   id="Puce_xA0_3_xA0_-_Bas"
   viewBox="-24 -24.001 48 48.001"
   transform="translate(-99.757871,-81.103215)">
	<g
   id="g3220">
		<radialGradient
   id="SVGID_1_"
   cx="-18.075701"
   cy="11.771"
   r="42.9356"
   gradientUnits="userSpaceOnUse">
			<stop
   offset="0"
   style="stop-color:#FFFFFF"
   id="stop3223" />
			<stop
   offset="1"
   style="stop-color:#B0BFC7"
   id="stop3225" />
		</radialGradient>
		<path
   d="m -14,-23.501 c -5.238,0 -9.5,4.262 -9.5,9.5 v 28 c 0,5.239 4.262,9.501 9.5,9.501 h 28 c 5.238,0 9.5,-4.262 9.5,-9.501 v -28 c 0,-5.238 -4.262,-9.5 -9.5,-9.5 h -28 z"
   id="path3227"
   inkscape:connector-curvature="0"
   style="fill:url(#radialGradient3999)" />
		<g
   id="g3229">
			<path
   d="m 14,23 c 4.962,0 9,-4.038 9,-9.001 v -28 c 0,-4.962 -4.038,-9 -9,-9 h -28 c -4.962,0 -9,4.038 -9,9 v 28 c 0,4.963 4.038,9.001 9,9.001 h 28 m 0,1 h -28 c -5.5,0 -10,-4.5 -10,-10.001 v -28 c 0,-5.5 4.5,-10 10,-10 h 28 c 5.5,0 10,4.5 10,10 v 28 C 24,19.5 19.5,24 14,24 l 0,0 z"
   id="path3231"
   inkscape:connector-curvature="0"
   style="fill:#8d98a0" />
		</g>
	</g>
	<linearGradient
   id="SVGID_2_"
   gradientUnits="userSpaceOnUse"
   x1="0"
   y1="22.8022"
   x2="-1.618442e-06"
   y2="-14.2234">
		<stop
   offset="0"
   style="stop-color:#FFFFFF"
   id="stop3234" />
		<stop
   offset="1"
   style="stop-color:#010202"
   id="stop3236" />
	</linearGradient>
	<path
   d="m 14,22 h -28 c -4.412,0 -8,-3.588 -8,-8.001 V -0.48 c 6.66,-1.72 14.121,-2.684 22,-2.684 7.879,0 15.338,0.964 22,2.684 V 13.999 C 22,18.412 18.412,22 14,22 z"
   id="path3238"
   inkscape:connector-curvature="0"
   style="fill:url(#linearGradient4001)" />
	<g
   id="g3240">
		<linearGradient
   id="SVGID_3_"
   gradientUnits="userSpaceOnUse"
   x1="0.0020000001"
   y1="-10.6157"
   x2="0.0020000001"
   y2="10.3288">
			<stop
   offset="0"
   style="stop-color:#706F71"
   id="stop3243" />
			<stop
   offset="1"
   style="stop-color:#050607"
   id="stop3245" />
		</linearGradient>
		<polygon
   points="3.998,10.522 3.998,0.276 11.644,0.276 0.002,-12.408 -11.64,0.276 -3.996,0.276 -3.996,10.522 "
   id="polygon3247"
   style="fill:url(#linearGradient4003)" />
		<path
   d="m 3.748,10.272 v -9.746 -0.5 h 0.5 6.827 L 0.002,-12.038 -11.071,0.026 h 6.825 0.5 v 0.5 9.746 h 7.494 m 0.5,0.5 H -4.246 V 0.526 h -7.963 L 0.002,-12.777 12.213,0.526 H 4.248 v 10.246 l 0,0 z"
   id="path3249"
   inkscape:connector-curvature="0"
   style="fill:#14272a" />
	</g>
</symbol>




























<g
   id="g3283"
   transform="translate(-97.456241,-11.633091)"
   style="fill:#ffffff">
	<path
   clip-rule="evenodd"
   d="m 100.726,18.833 c 0.928,-2.157 2.497,-4.116 4.157,-4.824 2.993,-1.32 5.928,-0.68 7.287,-0.317 2.368,0.633 3.684,3.341 4.048,4.061 0.387,0.76 1.186,3.502 1.114,6.325 -0.019,1.565 -0.499,3.062 -1.339,4.339 -0.556,0.848 -2.54,2.991 -5.225,3.647 -0.879,0.128 -1.768,0.059 -2.678,-0.052 -1.324,-0.16 -2.785,-0.363 -4.912,-1.574 -1.981,-1.26 -2.12,-3.383 -1.982,-3.654 0.338,-0.676 1.165,-0.677 1.56,-0.029 0.295,0.482 0.5,1.047 0.864,1.46 1.587,1.483 5.69,2.197 7.219,1.681 4.516,-1.976 4.842,-6.409 4.458,-8.71 -0.154,-0.93 -0.41,-1.875 -0.81,-2.714 -0.329,-0.693 -0.864,-1.333 -1.437,-1.835 -1.695,-1.595 -4.007,-1.415 -6.477,-1.042 -1.94,0.487 -3.128,1.824 -4.026,3.539 -0.306,0.582 -0.546,1.22 -0.718,1.86 -0.222,0.821 -2.151,0.193 -1.103,-2.161 z"
   id="path3285"
   inkscape:connector-curvature="0"
   style="fill:#ffffff;fill-rule:evenodd" />
	<path
   clip-rule="evenodd"
   d="m 107.603,23.753 c -0.029,1.012 -0.424,1.235 -1.457,1.108 -0.962,-0.117 -1.944,-0.064 -2.918,-0.047 -0.452,0.008 -0.903,0.109 -1.356,0.167 -0.079,0.01 -2.432,-0.065 -2.643,-0.938 -0.117,-0.485 0.23,-1.093 0.745,-1.295 0.305,-0.12 0.707,-0.002 1.06,0.048 0.5,0.072 0.994,0.254 1.492,0.259 0.715,0.007 1.434,-0.079 2.146,-0.173 0.561,-0.075 1.133,-0.161 1.662,-0.355 0.686,-0.251 1.297,0.301 1.269,1.226 z"
   id="path3287"
   inkscape:connector-curvature="0"
   style="fill:#ffffff;fill-rule:evenodd" />
</g>


























</svg>