<?xml version="1.0" encoding="UTF-8" standalone="no"?>
<!-- Generator: Adobe Illustrator 16.0.0, SVG Export Plug-In . SVG Version: 6.00 Build 0)  -->

<svg
   xmlns:dc="http://purl.org/dc/elements/1.1/"
   xmlns:cc="http://creativecommons.org/ns#"
   xmlns:rdf="http://www.w3.org/1999/02/22-rdf-syntax-ns#"
   xmlns:svg="http://www.w3.org/2000/svg"
   xmlns="http://www.w3.org/2000/svg"
   xmlns:sodipodi="http://sodipodi.sourceforge.net/DTD/sodipodi-0.dtd"
   xmlns:inkscape="http://www.inkscape.org/namespaces/inkscape"
   version="1.1"
   id="Calque_1"
   x="0px"
   y="0px"
   width="25"
   height="22"
   viewBox="0 0 24.999999 21.999999"
   enable-background="new 0 0 841.89 595.28"
   xml:space="preserve"
   inkscape:version="0.48.2 r9819"
   sodipodi:docname="contact.svg"
   inkscape:export-filename="/Users/marcu/Sites/Uello/web/img/menu/info.png"
   inkscape:export-xdpi="300"
   inkscape:export-ydpi="300"><metadata
   id="metadata3395"><rdf:RDF><cc:Work
       rdf:about=""><dc:format>image/svg+xml</dc:format><dc:type
         rdf:resource="http://purl.org/dc/dcmitype/StillImage" /><dc:title></dc:title></cc:Work></rdf:RDF></metadata><defs
   id="defs3393">




















</defs><sodipodi:namedview
   pagecolor="#ffffff"
   bordercolor="#666666"
   borderopacity="1"
   objecttolerance="10"
   gridtolerance="10"
   guidetolerance="10"
   inkscape:pageopacity="0"
   inkscape:pageshadow="2"
   inkscape:window-width="1237"
   inkscape:window-height="674"
   id="namedview3391"
   showgrid="false"
   inkscape:zoom="11.046902"
   inkscape:cx="35.978545"
   inkscape:cy="4.62773"
   inkscape:window-x="0"
   inkscape:window-y="0"
   inkscape:window-maximized="0"
   inkscape:current-layer="Calque_1"
   fit-margin-top="0"
   fit-margin-left="0"
   fit-margin-right="0"
   fit-margin-bottom="0" />
<symbol
   id="Puce_xA0_3_xA0_-_Bas"
   viewBox="-24 -24.001 48 48.001"
   transform="translate(-516.89849,-80.427438)">
	<g
   id="g3220">
		<radialGradient
   id="SVGID_1_"
   cx="-18.075701"
   cy="11.771"
   r="42.9356"
   gradientUnits="userSpaceOnUse">
			<stop
   offset="0"
   style="stop-color:#FFFFFF"
   id="stop3223" />
			<stop
   offset="1"
   style="stop-color:#B0BFC7"
   id="stop3225" />
		</radialGradient>
		<path
   d="m -14,-23.501 c -5.238,0 -9.5,4.262 -9.5,9.5 v 28 c 0,5.239 4.262,9.501 9.5,9.501 h 28 c 5.238,0 9.5,-4.262 9.5,-9.501 v -28 c 0,-5.238 -4.262,-9.5 -9.5,-9.5 h -28 z"
   id="path3227"
   inkscape:connector-curvature="0"
   style="fill:url(#SVGID_1_)" />
		<g
   id="g3229">
			<path
   d="m 14,23 c 4.962,0 9,-4.038 9,-9.001 v -28 c 0,-4.962 -4.038,-9 -9,-9 h -28 c -4.962,0 -9,4.038 -9,9 v 28 c 0,4.963 4.038,9.001 9,9.001 h 28 m 0,1 h -28 c -5.5,0 -10,-4.5 -10,-10.001 v -28 c 0,-5.5 4.5,-10 10,-10 h 28 c 5.5,0 10,4.5 10,10 v 28 C 24,19.5 19.5,24 14,24 l 0,0 z"
   id="path3231"
   inkscape:connector-curvature="0"
   style="fill:#8d98a0" />
		</g>
	</g>
	<linearGradient
   id="SVGID_2_"
   gradientUnits="userSpaceOnUse"
   x1="0"
   y1="22.8022"
   x2="-1.618442e-06"
   y2="-14.2234">
		<stop
   offset="0"
   style="stop-color:#FFFFFF"
   id="stop3234" />
		<stop
   offset="1"
   style="stop-color:#010202"
   id="stop3236" />
	</linearGradient>
	<path
   d="m 14,22 h -28 c -4.412,0 -8,-3.588 -8,-8.001 V -0.48 c 6.66,-1.72 14.121,-2.684 22,-2.684 7.879,0 15.338,0.964 22,2.684 V 13.999 C 22,18.412 18.412,22 14,22 z"
   id="path3238"
   inkscape:connector-curvature="0"
   style="fill:url(#SVGID_2_)" />
	<g
   id="g3240">
		<linearGradient
   id="SVGID_3_"
   gradientUnits="userSpaceOnUse"
   x1="0.0020000001"
   y1="-10.6157"
   x2="0.0020000001"
   y2="10.3288">
			<stop
   offset="0"
   style="stop-color:#706F71"
   id="stop3243" />
			<stop
   offset="1"
   style="stop-color:#050607"
   id="stop3245" />
		</linearGradient>
		<polygon
   points="3.998,10.522 3.998,0.276 11.644,0.276 0.002,-12.408 -11.64,0.276 -3.996,0.276 -3.996,10.522 "
   id="polygon3247"
   style="fill:url(#SVGID_3_)" />
		<path
   d="m 3.748,10.272 v -9.746 -0.5 h 0.5 6.827 L 0.002,-12.038 -11.071,0.026 h 6.825 0.5 v 0.5 9.746 h 7.494 m 0.5,0.5 H -4.246 V 0.526 h -7.963 L 0.002,-12.777 12.213,0.526 H 4.248 v 10.246 l 0,0 z"
   id="path3249"
   inkscape:connector-curvature="0"
   style="fill:#14272a" />
	</g>
</symbol>




























<g
   id="g3313"
   transform="translate(-515.26059,-12.444577)"
   style="fill:#ffffff">
	<path
   d="m 539.568,29.549 c -0.676,-4.323 -0.396,-8.727 -1.072,-13.053 -0.072,-0.457 -0.604,-0.807 -1.041,-0.793 -5.725,0.185 -11.441,0.531 -17.166,0.715 -1.391,0.045 -1.395,2.205 0,2.16 5.416,-0.175 10.826,-0.49 16.242,-0.68 0.473,3.656 0.357,7.363 0.793,11.025 -5.582,0.717 -11.242,-0.307 -16.842,0.287 -1.08,-3.094 -1.928,-6.269 -1.975,-9.567 -0.02,-1.392 -2.18,-1.394 -2.16,0 0.053,3.802 1.072,7.465 2.363,11.016 0.148,0.408 0.547,0.857 1.041,0.792 6.338,-0.839 12.736,0.467 19.063,-0.575 0.627,-0.103 0.838,-0.798 0.754,-1.327 z"
   id="path3315"
   inkscape:connector-curvature="0"
   style="fill:#ffffff" />
	<path
   d="m 525.287,26.119 c 0.346,0.233 0.682,0.228 0.955,0.088 0.299,0.307 0.748,0.422 1.207,0.091 2.764,-1.988 5.799,-3.528 8.762,-5.185 1.215,-0.68 0.127,-2.545 -1.09,-1.865 -2.92,1.632 -5.906,3.152 -8.635,5.097 -0.035,-0.03 -0.068,-0.063 -0.109,-0.091 -2.145,-1.449 -4.105,-3.115 -5.861,-5.016 -0.945,-1.025 -2.471,0.506 -1.527,1.527 1.88,2.034 4.005,3.804 6.298,5.354 z"
   id="path3317"
   inkscape:connector-curvature="0"
   style="fill:#ffffff" />
</g>


























</svg>