<?xml version="1.0" encoding="UTF-8" standalone="no"?>
<!-- Generator: Adobe Illustrator 16.0.0, SVG Export Plug-In . SVG Version: 6.00 Build 0)  -->

<svg
   xmlns:dc="http://purl.org/dc/elements/1.1/"
   xmlns:cc="http://creativecommons.org/ns#"
   xmlns:rdf="http://www.w3.org/1999/02/22-rdf-syntax-ns#"
   xmlns:svg="http://www.w3.org/2000/svg"
   xmlns="http://www.w3.org/2000/svg"
   xmlns:xlink="http://www.w3.org/1999/xlink"
   xmlns:sodipodi="http://sodipodi.sourceforge.net/DTD/sodipodi-0.dtd"
   xmlns:inkscape="http://www.inkscape.org/namespaces/inkscape"
   version="1.1"
   id="Calque_1"
   x="0px"
   y="0px"
   width="24"
   height="22"
   viewBox="0 0 24 21.999999"
   enable-background="new 0 0 841.89 595.28"
   xml:space="preserve"
   inkscape:version="0.48.2 r9819"
   sodipodi:docname="oeil.svg"><metadata
   id="metadata3395"><rdf:RDF><cc:Work
       rdf:about=""><dc:format>image/svg+xml</dc:format><dc:type
         rdf:resource="http://purl.org/dc/dcmitype/StillImage" /><dc:title></dc:title></cc:Work></rdf:RDF></metadata><defs
   id="defs3393">



	
<radialGradient
   inkscape:collect="always"
   xlink:href="#SVGID_1_"
   id="radialGradient4416"
   gradientUnits="userSpaceOnUse"
   cx="-18.075701"
   cy="11.771"
   r="42.9356" /><linearGradient
   inkscape:collect="always"
   xlink:href="#SVGID_2_"
   id="linearGradient4418"
   gradientUnits="userSpaceOnUse"
   x1="0"
   y1="22.8022"
   x2="-1.618442e-06"
   y2="-14.2234" /><linearGradient
   inkscape:collect="always"
   xlink:href="#SVGID_3_"
   id="linearGradient4420"
   gradientUnits="userSpaceOnUse"
   x1="0.0020000001"
   y1="-10.6157"
   x2="0.0020000001"
   y2="10.3288" /></defs><sodipodi:namedview
   pagecolor="#ffffff"
   bordercolor="#666666"
   borderopacity="1"
   objecttolerance="10"
   gridtolerance="10"
   guidetolerance="10"
   inkscape:pageopacity="0"
   inkscape:pageshadow="2"
   inkscape:window-width="1091"
   inkscape:window-height="737"
   id="namedview3391"
   showgrid="false"
   inkscape:zoom="5.6568542"
   inkscape:cx="27.299517"
   inkscape:cy="-1.1467428"
   inkscape:window-x="84"
   inkscape:window-y="0"
   inkscape:window-maximized="0"
   inkscape:current-layer="g3365"
   fit-margin-top="0"
   fit-margin-left="0"
   fit-margin-right="0"
   fit-margin-bottom="0" />
<symbol
   id="Puce_xA0_3_xA0_-_Bas"
   viewBox="-24 -24.001 48 48.001"
   transform="translate(-321.55133,-0.34197624)">
	<g
   id="g3220">
		<radialGradient
   id="SVGID_1_"
   cx="-18.075701"
   cy="11.771"
   r="42.9356"
   gradientUnits="userSpaceOnUse">
			<stop
   offset="0"
   style="stop-color:#FFFFFF"
   id="stop3223" />
			<stop
   offset="1"
   style="stop-color:#B0BFC7"
   id="stop3225" />
		</radialGradient>
		<path
   d="m -14,-23.501 c -5.238,0 -9.5,4.262 -9.5,9.5 v 28 c 0,5.239 4.262,9.501 9.5,9.501 h 28 c 5.238,0 9.5,-4.262 9.5,-9.501 v -28 c 0,-5.238 -4.262,-9.5 -9.5,-9.5 h -28 z"
   id="path3227"
   inkscape:connector-curvature="0"
   style="fill:url(#radialGradient4416)" />
		<g
   id="g3229">
			<path
   d="m 14,23 c 4.962,0 9,-4.038 9,-9.001 v -28 c 0,-4.962 -4.038,-9 -9,-9 h -28 c -4.962,0 -9,4.038 -9,9 v 28 c 0,4.963 4.038,9.001 9,9.001 h 28 m 0,1 h -28 c -5.5,0 -10,-4.5 -10,-10.001 v -28 c 0,-5.5 4.5,-10 10,-10 h 28 c 5.5,0 10,4.5 10,10 v 28 C 24,19.5 19.5,24 14,24 l 0,0 z"
   id="path3231"
   inkscape:connector-curvature="0"
   style="fill:#8d98a0" />
		</g>
	</g>
	<linearGradient
   id="SVGID_2_"
   gradientUnits="userSpaceOnUse"
   x1="0"
   y1="22.8022"
   x2="-1.618442e-06"
   y2="-14.2234">
		<stop
   offset="0"
   style="stop-color:#FFFFFF"
   id="stop3234" />
		<stop
   offset="1"
   style="stop-color:#010202"
   id="stop3236" />
	</linearGradient>
	<path
   d="m 14,22 h -28 c -4.412,0 -8,-3.588 -8,-8.001 V -0.48 c 6.66,-1.72 14.121,-2.684 22,-2.684 7.879,0 15.338,0.964 22,2.684 V 13.999 C 22,18.412 18.412,22 14,22 z"
   id="path3238"
   inkscape:connector-curvature="0"
   style="fill:url(#linearGradient4418)" />
	<g
   id="g3240">
		<linearGradient
   id="SVGID_3_"
   gradientUnits="userSpaceOnUse"
   x1="0.0020000001"
   y1="-10.6157"
   x2="0.0020000001"
   y2="10.3288">
			<stop
   offset="0"
   style="stop-color:#706F71"
   id="stop3243" />
			<stop
   offset="1"
   style="stop-color:#050607"
   id="stop3245" />
		</linearGradient>
		<polygon
   points="3.998,10.522 3.998,0.276 11.644,0.276 0.002,-12.408 -11.64,0.276 -3.996,0.276 -3.996,10.522 "
   id="polygon3247"
   style="fill:url(#linearGradient4420)" />
		<path
   d="m 3.748,10.272 v -9.746 -0.5 h 0.5 6.827 L 0.002,-12.038 -11.071,0.026 h 6.825 0.5 v 0.5 9.746 h 7.494 m 0.5,0.5 H -4.246 V 0.526 h -7.963 L 0.002,-12.777 12.213,0.526 H 4.248 v 10.246 l 0,0 z"
   id="path3249"
   inkscape:connector-curvature="0"
   style="fill:#14272a" />
	</g>
</symbol>
















































<g
   id="g3365"
   transform="matrix(0.76678985,0,0,0.76678985,-247.93751,-35.414011)">
		
		<g
   id="g4501"
   style="fill:#ffffff"><g
     transform="matrix(0.73148958,0,0,0.73148958,87.513075,10.819351)"
     id="g3367"
     style="fill:#ffffff">
			<path
   d="m 363.562,62.833 c -1.579,-8.057 -9.201,-11.158 -15.25,-11.365 -4.31,-0.148 -8.512,1.045 -11.244,3.196 -0.388,0.304 -0.861,1.825 -0.469,3.021 0.353,1.078 1.331,1.476 2.842,1.177 0.861,-0.168 1.694,-0.514 2.58,-0.879 1.07,-0.443 2.177,-0.9 3.338,-1.017 1.241,-0.126 2.326,-0.171 3.313,-0.137 3.891,0.134 6.697,1.566 8.58,4.381 2.396,3.582 2.024,9.17 -0.865,13 -2.908,3.853 -8.64,6.312 -14.258,6.12 -2.088,-0.073 -4.022,-0.494 -5.754,-1.253 -6.188,-2.712 -8.472,-8.105 -6.982,-16.487 0.254,-1.426 -0.503,-3.876 -1.327,-4.301 -0.379,-0.195 -0.726,-0.299 -1.031,-0.309 -1.188,-0.042 -1.831,1.39 -2.452,2.773 -0.069,0.155 -0.138,0.308 -0.207,0.457 -0.243,0.527 -0.382,1.139 -0.517,1.73 -1.282,5.61 -0.147,11.062 3.183,15.392 3.468,4.505 8.9,7.208 14.903,7.415 1.765,0.06 3.571,-0.096 5.364,-0.465 9.253,-1.893 14.767,-6.462 16.396,-13.578 0.686,-3.936 0.136,-7.479 -0.132,-8.821 l -0.011,-0.05 z"
   id="path3369"
   inkscape:connector-curvature="0"
   style="fill:#ffffff" />
		</g><g
     transform="matrix(0.73148958,0,0,0.73148958,87.513075,10.819351)"
     id="g3371"
     style="fill:#ffffff">
			<path
   d="m 354.587,66.577 c 0.777,-0.746 1.192,-1.646 1.199,-2.601 0.018,-2.597 -3.016,-4.701 -7.056,-4.898 l -0.169,-0.006 c -4.093,-0.14 -7.417,1.802 -7.564,4.421 -0.053,0.941 0.302,1.857 1.026,2.65 1.284,1.407 3.606,2.301 6.211,2.39 l -0.016,0.453 0,0 0.027,-0.452 c 2.606,0.087 4.975,-0.645 6.342,-1.957 z"
   id="path3373"
   inkscape:connector-curvature="0"
   style="fill:#ffffff" />
		</g></g>
	</g>



<rect
   y="569.43402"
   width="537.203"
   height="25.504"
   id="rect3389"
   x="-321.55133"
   style="fill:#ffffff" />


</svg>