<?xml version="1.0" encoding="UTF-8" standalone="no"?>
<!-- Generator: Adobe Illustrator 16.0.0, SVG Export Plug-In . SVG Version: 6.00 Build 0)  -->

<svg
   xmlns:dc="http://purl.org/dc/elements/1.1/"
   xmlns:cc="http://creativecommons.org/ns#"
   xmlns:rdf="http://www.w3.org/1999/02/22-rdf-syntax-ns#"
   xmlns:svg="http://www.w3.org/2000/svg"
   xmlns="http://www.w3.org/2000/svg"
   xmlns:sodipodi="http://sodipodi.sourceforge.net/DTD/sodipodi-0.dtd"
   xmlns:inkscape="http://www.inkscape.org/namespaces/inkscape"
   version="1.1"
   id="Calque_1"
   x="0px"
   y="0px"
   width="18"
   height="22"
   viewBox="0 0 17.999999 21.999999"
   enable-background="new 0 0 841.89 595.28"
   xml:space="preserve"
   inkscape:version="0.48.2 r9819"
   sodipodi:docname="personne.svg"><metadata
   id="metadata3395"><rdf:RDF><cc:Work
       rdf:about=""><dc:format>image/svg+xml</dc:format><dc:type
         rdf:resource="http://purl.org/dc/dcmitype/StillImage" /><dc:title /></cc:Work></rdf:RDF></metadata><defs
   id="defs3393">




















</defs><sodipodi:namedview
   pagecolor="#ffffff"
   bordercolor="#666666"
   borderopacity="1"
   objecttolerance="10"
   gridtolerance="10"
   guidetolerance="10"
   inkscape:pageopacity="0"
   inkscape:pageshadow="2"
   inkscape:window-width="1237"
   inkscape:window-height="674"
   id="namedview3391"
   showgrid="false"
   inkscape:zoom="7.811339"
   inkscape:cx="9.6609938"
   inkscape:cy="12.752855"
   inkscape:window-x="0"
   inkscape:window-y="0"
   inkscape:window-maximized="0"
   inkscape:current-layer="Calque_1"
   fit-margin-top="0"
   fit-margin-left="0"
   fit-margin-right="0"
   fit-margin-bottom="0" />
<symbol
   id="Puce_xA0_3_xA0_-_Bas"
   viewBox="-24 -24.001 48 48.001"
   transform="translate(-206.12973,-81.632121)">
	<g
   id="g3220">
		<radialGradient
   id="SVGID_1_"
   cx="-18.075701"
   cy="11.771"
   r="42.9356"
   gradientUnits="userSpaceOnUse">
			<stop
   offset="0"
   style="stop-color:#FFFFFF"
   id="stop3223" />
			<stop
   offset="1"
   style="stop-color:#B0BFC7"
   id="stop3225" />
		</radialGradient>
		<path
   d="m -14,-23.501 c -5.238,0 -9.5,4.262 -9.5,9.5 v 28 c 0,5.239 4.262,9.501 9.5,9.501 h 28 c 5.238,0 9.5,-4.262 9.5,-9.501 v -28 c 0,-5.238 -4.262,-9.5 -9.5,-9.5 h -28 z"
   id="path3227"
   inkscape:connector-curvature="0"
   style="fill:url(#SVGID_1_)" />
		<g
   id="g3229">
			<path
   d="m 14,23 c 4.962,0 9,-4.038 9,-9.001 v -28 c 0,-4.962 -4.038,-9 -9,-9 h -28 c -4.962,0 -9,4.038 -9,9 v 28 c 0,4.963 4.038,9.001 9,9.001 h 28 m 0,1 h -28 c -5.5,0 -10,-4.5 -10,-10.001 v -28 c 0,-5.5 4.5,-10 10,-10 h 28 c 5.5,0 10,4.5 10,10 v 28 C 24,19.5 19.5,24 14,24 l 0,0 z"
   id="path3231"
   inkscape:connector-curvature="0"
   style="fill:#8d98a0" />
		</g>
	</g>
	<linearGradient
   id="SVGID_2_"
   gradientUnits="userSpaceOnUse"
   x1="0"
   y1="22.8022"
   x2="-1.618442e-06"
   y2="-14.2234">
		<stop
   offset="0"
   style="stop-color:#FFFFFF"
   id="stop3234" />
		<stop
   offset="1"
   style="stop-color:#010202"
   id="stop3236" />
	</linearGradient>
	<path
   d="m 14,22 h -28 c -4.412,0 -8,-3.588 -8,-8.001 V -0.48 c 6.66,-1.72 14.121,-2.684 22,-2.684 7.879,0 15.338,0.964 22,2.684 V 13.999 C 22,18.412 18.412,22 14,22 z"
   id="path3238"
   inkscape:connector-curvature="0"
   style="fill:url(#SVGID_2_)" />
	<g
   id="g3240">
		<linearGradient
   id="SVGID_3_"
   gradientUnits="userSpaceOnUse"
   x1="0.0020000001"
   y1="-10.6157"
   x2="0.0020000001"
   y2="10.3288">
			<stop
   offset="0"
   style="stop-color:#706F71"
   id="stop3243" />
			<stop
   offset="1"
   style="stop-color:#050607"
   id="stop3245" />
		</linearGradient>
		<polygon
   points="-11.64,0.276 -3.996,0.276 -3.996,10.522 3.998,10.522 3.998,0.276 11.644,0.276 0.002,-12.408 "
   id="polygon3247"
   style="fill:url(#SVGID_3_)" />
		<path
   d="m 3.748,10.272 v -9.746 -0.5 h 0.5 6.827 L 0.002,-12.038 -11.071,0.026 h 6.825 0.5 v 0.5 9.746 h 7.494 m 0.5,0.5 H -4.246 V 0.526 h -7.963 L 0.002,-12.777 12.213,0.526 H 4.248 v 10.246 l 0,0 z"
   id="path3249"
   inkscape:connector-curvature="0"
   style="fill:#14272a" />
	</g>
</symbol>




























<path
   d="m 16.996357,17.964866 c -0.075,-0.768996 -0.156,-1.408996 -0.312,-2.038996 l -0.042,-0.176 c -0.198,-0.815 -0.405,-1.658 -0.757,-2.424 -0.648,-1.41 -1.62,-2.57 -2.89,-3.4510001 0.08,-0.102 0.158,-0.198 0.235,-0.293 0.229,-0.282 0.448,-0.5479996 0.594,-0.8569996 0.572,-1.206 0.799,-2.442 0.689,-3.806 -0.838,-3.116 -4.036999,-3.798 -5.1999989,-3.798 -0.076,0 -0.185,0.003 -0.261,0.019 -2.1370001,0.444 -3.5540001,1.374 -4.4590001,2.926 -0.628,1.075 -1.183,2.368 -0.534,3.794 0.206,0.455 0.497,0.866 0.779,1.2629996 0.095,0.133 0.188,0.266 0.278,0.398 l -0.116,0.065 c -0.914,0.5110001 -1.857,1.0410001 -2.51,1.9850001 -0.285,0.414 -0.536,0.911 -0.791,1.564 -0.457,1.177 -0.675,3.986 -0.618,5.325996 l 10e-4,0.034 0.018,0.029 c 0.964,1.676 4.945,2.312 5.733,2.421 0.9190001,0.131 1.8440001,0.148 2.7070001,0.148 0.2349999,0 0.4709999,-0.002 0.7049999,-0.004 h 0.184 c 0.237,0 0.474,0.004 0.709999,0.007 0.237,0.004 0.475,0.008 0.713,0.008 0.994,0 2.057,-0.063 3.103,-0.528 0.51,-0.225 0.953,-0.461 1.193,-1.04 0.258,-0.14 0.563,-0.315 0.704,-0.595 0.129,-0.244 0.181,-0.601 0.144,-0.976 z m -2.446,0.479 c -0.407,0.836 -1.217,0.92 -1.943,0.934 l -0.262,0.005 c -0.637,0.013 -1.273999,0.024 -1.912999,0.024 -1.1399999,0 -2.0629999,-0.039 -2.903,-0.125 -2.012,-0.203 -3.468,-0.586 -4.706,-1.241 -0.018,-0.239 -0.043,-0.476 -0.069,-0.709996 -0.061,-0.566 -0.118,-1.102 -0.068,-1.628 0.165,-1.722 0.896,-3.007 2.174,-3.822 0.615,-0.392 1.35,-0.837 2.126,-1.157 0.132,-0.056 0.354,-0.009 0.584,0.049 0.146,0.038 0.2970001,0.076 0.4460001,0.086 0.177,0.012 0.354,0.031 0.533,0.051 0.525,0.057 1.096,0.101 1.5329999,0.013 0.153,-0.031 0.307,-0.047 0.454,-0.047 0.738999,0 1.320999,0.379 1.794999,0.749 1.301,1.017 2.132,2.329 2.47,3.896 0.031,0.146 0.066,0.29 0.102,0.434 0.166,0.684 0.321,1.329 0.083,2.006996 -0.027,0.076 -0.069,0.184 -0.135,0.254 -0.017,0.019 -0.057,0.039 -0.093,0.057 -0.073,0.035 -0.163,0.079 -0.208,0.171 z m -2.077,-13.2259957 c 0.268,0.807 0.259,1.636 -0.027,2.535 -0.209,0.648 -0.834,0.889 -1.403999,1.064 -0.05,0.016 -0.188,0.042 -0.532,0.042 -0.8829999,0 -2.4139999,-0.171 -2.911,-0.299 -0.508,-0.13 -1.896,-0.909 -1.885,-2.263 0.078,-1.551 1.663,-3.295 3.9000001,-3.42 1.2839999,0.005 2.3799989,0.902 2.8589989,2.341 z"
   id="path3281"
   inkscape:connector-curvature="0"
   style="fill:#ffffff" />


























</svg>