<?xml version="1.0" encoding="UTF-8" standalone="no"?>
<!-- Created with Inkscape (http://www.inkscape.org/) -->

<svg
   xmlns:dc="http://purl.org/dc/elements/1.1/"
   xmlns:cc="http://creativecommons.org/ns#"
   xmlns:rdf="http://www.w3.org/1999/02/22-rdf-syntax-ns#"
   xmlns:svg="http://www.w3.org/2000/svg"
   xmlns="http://www.w3.org/2000/svg"
   version="1.1"
   width="128"
   height="128"
   id="svg3173">
  <defs
     id="defs3175" />
  <metadata
     id="metadata3178">
    <rdf:RDF>
      <cc:Work
         rdf:about="">
        <dc:format>image/svg+xml</dc:format>
        <dc:type
           rdf:resource="http://purl.org/dc/dcmitype/StillImage" />
        <dc:title></dc:title>
      </cc:Work>
    </rdf:RDF>
  </metadata>
  <path
     d="m 120.72882,57.118645 a 60.220341,57.050846 0 1 1 -120.44068447,0 60.220341,57.050846 0 1 1 120.44068447,0 z"
     transform="matrix(1,0,0,1.0492816,3.4576267,3.7593706)"
     id="path3948"
     style="fill:#66cd00;fill-opacity:1;stroke:none" />
  <path
     d="m 41.763075,58.084985 c 12.873778,17.694267 16.786264,38.672578 22.80465,50.304735 1.398181,1.7482 2.328297,1.85962 3.320458,0.14312 C 73.327055,96.420494 75.793591,72.723862 88.699556,57.903178 74.46046,65.690337 38.581275,42.170592 41.763075,58.084985 z"
     id="path3952"
     style="fill:#000000" />
  <path
     d="m 46.534574,16.406205 c 4.731659,-2.846594 8.527167,-3.954632 16.18106,-4.849243 8.461184,-1.5745791 19.619556,0.844165 26.137623,5.739014 6.518065,4.894848 10.192673,14.909318 8.66034,24.264448 -1.306312,7.975246 -3.064758,11.544477 -8.086121,16.54292 -5.083941,5.060732 -14.742831,7.281536 -22.405508,7.67914 C 59.369584,66.179555 49.00438,66.437582 43.58541,61.737342 38.16644,57.037105 30.348944,41.120426 35.76631,28.446771 37.618654,23.416882 42.441973,19.667329 46.534574,16.406205 z"
     id="path3954"
     style="fill:#000000;fill-opacity:1" />
  <g
     transform="matrix(1.3825297,0,0,1.3825297,-409.08667,-54.554781)"
     id="g3956"
     style="fill:#66cd00">
    <g
       id="g3958"
       style="fill:#66cd00">
      <g
         id="g3960"
         style="fill:#66cd00">
        <path
           d="m 363.562,62.833 c -1.579,-8.057 -9.201,-11.158 -15.25,-11.365 -4.31,-0.148 -8.512,1.045 -11.244,3.196 -0.388,0.304 -0.861,1.825 -0.469,3.021 0.353,1.078 1.331,1.476 2.842,1.177 0.861,-0.168 1.694,-0.514 2.58,-0.879 1.07,-0.443 2.177,-0.9 3.338,-1.017 1.241,-0.126 2.326,-0.171 3.313,-0.137 3.891,0.134 6.697,1.566 8.58,4.381 2.396,3.582 2.024,9.17 -0.865,13 -2.908,3.853 -8.64,6.312 -14.258,6.12 -2.088,-0.073 -4.022,-0.494 -5.754,-1.253 -6.188,-2.712 -8.472,-8.105 -6.982,-16.487 0.254,-1.426 -0.503,-3.876 -1.327,-4.301 -0.379,-0.195 -0.726,-0.299 -1.031,-0.309 -1.188,-0.042 -1.831,1.39 -2.452,2.773 -0.069,0.155 -0.138,0.308 -0.207,0.457 -0.243,0.527 -0.382,1.139 -0.517,1.73 -1.282,5.61 -0.147,11.062 3.183,15.392 3.468,4.505 8.9,7.208 14.903,7.415 1.765,0.06 3.571,-0.096 5.364,-0.465 9.253,-1.893 14.767,-6.462 16.396,-13.578 0.686,-3.936 0.136,-7.479 -0.132,-8.821 l -0.011,-0.05 z"
           id="path3962"
           style="fill:#66cd00" />
      </g>
      <g
         id="g3964"
         style="fill:#66cd00">
        <path
           d="m 354.587,66.577 c 0.777,-0.746 1.192,-1.646 1.199,-2.601 0.018,-2.597 -3.016,-4.701 -7.056,-4.898 l -0.169,-0.006 c -4.093,-0.14 -7.417,1.802 -7.564,4.421 -0.053,0.941 0.302,1.857 1.026,2.65 1.284,1.407 3.606,2.301 6.211,2.39 l -0.016,0.453 0,0 0.027,-0.452 c 2.606,0.087 4.975,-0.645 6.342,-1.957 z"
           id="path3966"
           style="fill:#66cd00" />
      </g>
    </g>
  </g>
  <text
     x="77.796616"
     y="121.08472"
     id="text3968"
     xml:space="preserve"
     style="font-size:48px;font-style:normal;font-variant:normal;font-weight:bold;font-stretch:normal;text-align:center;line-height:125%;letter-spacing:0px;word-spacing:0px;text-anchor:middle;fill:#2b1100;fill-opacity:1;stroke:none;font-family:Pecita;-inkscape-font-specification:Pecita Bold"><tspan
       x="77.796616"
       y="121.08472"
       id="tspan3970"
       style="font-size:20px;font-weight:bold;fill:#2b1100;-inkscape-font-specification:Pecita Bold" /></text>
  <text
     x="89.079132"
     y="23.404213"
     transform="matrix(0.52374925,0.85187248,-0.85187248,0.52374925,0,0)"
     id="text4748"
     xml:space="preserve"
     style="font-size:14px;font-style:normal;font-variant:normal;font-weight:bold;font-stretch:normal;text-align:center;line-height:125%;letter-spacing:0px;word-spacing:0px;text-anchor:middle;fill:#000000;fill-opacity:1;stroke:none;font-family:Pecita;-inkscape-font-specification:Pecita Bold"><tspan
       x="89.079132"
       y="23.404213"
       id="tspan4750"
       style="font-size:28px;font-weight:bold;-inkscape-font-specification:Pecita Bold">Uello</tspan></text>
</svg>
